<svg width="272" height="87" viewBox="0 0 272 87" fill="none" xmlns="http://www.w3.org/2000/svg">
<g clip-path="url(#clip0_1_59)">
<mask id="mask0_1_59" style="mask-type:luminance" maskUnits="userSpaceOnUse" x="0" y="3" width="272" height="80">
<path d="M271.042 3H0.95826V83H271.042V3Z" fill="white"/>
</mask>
<g mask="url(#mask0_1_59)">
<path d="M251.992 3H17.8241H15.9875C14.6445 3.01928 13.3047 3.13694 11.9793 3.352C10.6625 3.5722 9.38745 3.98944 8.19797 4.58934C7.00165 5.1932 5.90815 5.97776 4.95689 6.91474C4.00584 7.85212 3.21096 8.93214 2.60164 10.1147C1.98668 11.3057 1.56038 12.5827 1.33761 13.9013C1.11374 15.2074 0.994546 16.5287 0.981095 17.8533C0.948685 18.4667 0.948685 19.064 0.948685 19.672V66.334C0.948685 66.9472 0.948685 67.5446 0.981095 68.158C0.994998 69.4824 1.11419 70.8038 1.33761 72.11C1.55845 73.4098 1.97925 74.6688 2.58543 75.8432C3.8108 78.232 5.76959 80.177 8.18177 81.4006C9.37165 82.0016 10.6464 82.4222 11.9631 82.6486C13.2886 82.862 14.6283 82.9778 15.9713 82.9952H17.8079H254.144H255.985C257.324 82.979 258.661 82.863 259.982 82.6486C261.31 82.4214 262.597 82.0008 263.802 81.4006C265.001 80.803 266.095 80.0178 267.043 79.0752C267.997 78.1394 268.797 77.0592 269.409 75.8752C270.009 74.6994 270.426 73.4408 270.645 72.142C270.87 70.8356 270.993 69.5146 271.018 68.19V66.366V64.2326V21.8266V19.6932V17.8745C270.993 16.5499 270.87 15.2289 270.645 13.9225C270.424 12.6242 270.007 11.3659 269.409 10.1891C268.184 7.79352 266.229 5.83832 263.818 4.59972C262.613 4.00598 261.327 3.59428 259.998 3.37838C258.677 3.16214 257.34 3.04448 256.001 3.02638H254.16L251.992 3Z" fill="#B6B6B6"/>
</g>
<mask id="mask1_1_59" style="mask-type:luminance" maskUnits="userSpaceOnUse" x="0" y="3" width="272" height="80">
<path d="M271.042 3H0.95826V83H271.042V3Z" fill="white"/>
</mask>
<g mask="url(#mask1_1_59)">
<path d="M17.8443 81.272H16.0346C14.7824 81.256 13.5329 81.149 12.2967 80.952C11.1458 80.759 10.0301 80.3996 8.98529 79.8854C6.90978 78.835 5.21915 77.1696 4.1506 75.1226C3.62478 74.0914 3.26052 72.9872 3.07023 71.848C2.86369 70.6246 2.75351 69.387 2.74073 68.1466C2.74073 67.7306 2.70832 66.344 2.70832 66.344V19.672C2.70832 19.672 2.70832 18.3067 2.74073 17.9067C2.75007 16.6646 2.85844 15.4253 3.06484 14.2001C3.25266 13.0569 3.61702 11.9489 4.14519 10.9147C4.67025 9.8971 5.35789 8.96966 6.18161 8.16808C7.00438 7.35492 7.95018 6.67298 8.98514 6.14668C10.0275 5.63146 11.1417 5.27198 12.291 5.08002C13.5306 4.87876 14.7838 4.77 16.04 4.7547H255.981C257.225 4.76522 258.469 4.87221 259.696 5.0747C260.857 5.26272 261.983 5.62232 263.035 6.14138C265.115 7.20088 266.805 8.88038 267.864 10.9414C268.389 11.9676 268.753 13.0662 268.946 14.2C269.152 15.4344 269.268 16.6822 269.29 17.9334V19.6934V21.8268V64.1728V66.306V68.146C269.272 69.3724 269.156 70.5954 268.95 71.8048C268.765 72.952 268.401 74.064 267.87 75.1008C266.796 77.14 265.109 78.8002 263.041 79.8528C261.992 80.3724 260.867 80.732 259.709 80.9194C258.471 81.1176 257.221 81.2246 255.969 81.2394H254.176H17.8408L17.8443 81.272Z" fill="black"/>
</g>
<mask id="mask2_1_59" style="mask-type:luminance" maskUnits="userSpaceOnUse" x="0" y="3" width="272" height="80">
<path d="M271.042 3H0.95826V83H271.042V3Z" fill="white"/>
</mask>
<g mask="url(#mask2_1_59)">
<path d="M101.211 57.006H91.7087L89.4021 63.2672H85.2265L94.5177 39.8752H98.4609L107.963 63.2672H103.593L101.211 57.006ZM92.9187 53.806H99.9952L97.4616 47.1072C97.1159 46.1846 96.7703 45.1606 96.4352 44.0406C96.1273 45.0326 95.7925 46.0406 95.436 47.0752L92.9187 53.806Z" fill="white"/>
</g>
<mask id="mask3_1_59" style="mask-type:luminance" maskUnits="userSpaceOnUse" x="0" y="3" width="272" height="80">
<path d="M271.042 3H0.95826V83H271.042V3Z" fill="white"/>
</mask>
<g mask="url(#mask3_1_59)">
<path d="M109.643 50.11C109.643 48.8192 109.6 47.397 109.514 45.8432H113.295C113.437 46.5746 113.535 47.3138 113.587 48.0566C114.248 47.2738 115.074 46.6416 116.006 46.2034C116.939 45.765 117.956 45.5312 118.989 45.518C120.199 45.499 121.388 45.837 122.403 46.4888C123.418 47.1406 124.214 48.0764 124.688 49.1766C125.352 50.6892 125.668 52.3288 125.611 53.9766C125.652 55.7734 125.283 57.556 124.531 59.1926C123.902 60.5508 122.874 61.6916 121.581 62.4672C120.251 63.2262 118.737 63.6116 117.2 63.582C115.992 63.5812 114.792 63.3792 113.651 62.9846V70.2006L109.611 70.542L109.643 50.11ZM120.263 59.0006C121.084 57.934 121.5 56.334 121.5 54.2006C121.5 52.2558 121.158 50.8334 120.474 49.934C120.165 49.5158 119.758 49.178 119.287 48.9496C118.817 48.721 118.297 48.6086 117.773 48.622C117.018 48.612 116.274 48.7958 115.612 49.1552C114.91 49.5482 114.271 50.0426 113.716 50.622V59.9552C114.164 60.1636 114.636 60.3176 115.121 60.414C115.643 60.5254 116.175 60.5826 116.709 60.5846C117.387 60.6246 118.065 60.5014 118.684 60.2256C119.303 59.9496 119.845 59.5292 120.263 59.0006Z" fill="white"/>
</g>
<mask id="mask4_1_59" style="mask-type:luminance" maskUnits="userSpaceOnUse" x="0" y="3" width="272" height="80">
<path d="M271.042 3H0.95826V83H271.042V3Z" fill="white"/>
</mask>
<g mask="url(#mask4_1_59)">
<path d="M128.069 50.11C128.069 48.8192 128.026 47.397 127.939 45.8432H131.721C131.867 46.574 131.966 47.3134 132.018 48.0566C133.591 46.3642 135.392 45.518 137.42 45.518C138.63 45.499 139.819 45.837 140.834 46.4888C141.849 47.1406 142.645 48.0764 143.119 49.1766C143.783 50.6892 144.099 52.3288 144.042 53.9766C144.092 55.7712 143.732 57.554 142.989 59.1926C142.358 60.5516 141.329 61.6924 140.034 62.4672C138.704 63.2268 137.189 63.6124 135.653 63.582C134.445 63.5812 133.245 63.3792 132.104 62.9846V70.2006L128.064 70.542L128.069 50.11ZM138.705 59.0006C139.526 57.909 139.937 56.309 139.937 54.2006C139.937 52.2558 139.597 50.8334 138.916 49.934C138.607 49.5158 138.199 49.178 137.729 48.9496C137.259 48.721 136.739 48.6086 136.215 48.622C135.46 48.613 134.716 48.7966 134.054 49.1552C133.352 49.5482 132.713 50.0426 132.158 50.622V59.9552C132.607 60.162 133.078 60.316 133.563 60.414C134.085 60.5254 134.617 60.5826 135.151 60.5846C135.829 60.6238 136.506 60.5002 137.125 60.2242C137.744 59.9484 138.287 59.5286 138.705 59.0006Z" fill="white"/>
</g>
<mask id="mask5_1_59" style="mask-type:luminance" maskUnits="userSpaceOnUse" x="0" y="3" width="272" height="80">
<path d="M271.042 3H0.95826V83H271.042V3Z" fill="white"/>
</mask>
<g mask="url(#mask5_1_59)">
<path d="M151.47 62.162C149.744 61.2274 148.341 59.8022 147.445 58.0714C146.466 56.1156 145.984 53.9538 146.041 51.7728C145.971 49.4392 146.53 47.1294 147.661 45.0794C148.683 43.3004 150.217 41.8618 152.069 40.946C154.016 40.0072 156.159 39.534 158.325 39.5648C159.638 39.559 160.948 39.7096 162.225 40.0128C163.419 40.2904 164.579 40.6982 165.682 41.2288L164.634 44.2954C162.723 43.3438 160.621 42.8262 158.481 42.7808C156.971 42.7558 155.481 43.1238 154.16 43.8474C152.907 44.5576 151.9 45.6246 151.27 46.9088C150.546 48.4318 150.194 50.1016 150.244 51.7834C150.217 53.2986 150.484 54.805 151.032 56.2208C151.53 57.4738 152.404 58.546 153.539 59.2928C154.831 60.091 156.337 60.485 157.86 60.4234C158.649 60.4214 159.437 60.3554 160.215 60.226C160.968 60.1078 161.708 59.9186 162.425 59.6608V54.9034H156.947V51.8048H166.352V61.666C164.987 62.2938 163.558 62.7748 162.09 63.1008C160.633 63.432 159.144 63.6002 157.649 63.602C155.499 63.653 153.371 63.1572 151.47 62.162Z" fill="white"/>
</g>
<mask id="mask6_1_59" style="mask-type:luminance" maskUnits="userSpaceOnUse" x="0" y="3" width="272" height="80">
<path d="M271.042 3H0.95826V83H271.042V3Z" fill="white"/>
</mask>
<g mask="url(#mask6_1_59)">
<path d="M180.704 63.266C180.551 62.5044 180.457 61.7324 180.423 60.9568C179.749 61.732 178.924 62.3664 177.998 62.8234C176.952 63.3462 175.794 63.6098 174.622 63.5914C173.663 63.6034 172.714 63.401 171.845 62.9994C171.019 62.6168 170.328 61.9982 169.863 61.2234C169.347 60.3454 169.09 59.342 169.123 58.3274C169.092 57.5578 169.244 56.7918 169.566 56.09C169.887 55.3884 170.37 54.7702 170.975 54.2848C172.207 53.275 174.262 52.7718 177.139 52.7754C178.211 52.775 179.281 52.8498 180.342 52.9994V52.658C180.342 51.122 180.011 50.0376 179.348 49.4048C178.556 48.7318 177.528 48.3928 176.485 48.4608C175.552 48.472 174.623 48.5974 173.72 48.834C172.825 49.047 171.953 49.3434 171.116 49.7194L170.479 46.818C171.395 46.432 172.346 46.1338 173.32 45.9274C174.545 45.654 175.797 45.518 177.053 45.522C178.383 45.4862 179.707 45.7204 180.942 46.21C182.028 46.6842 182.913 47.518 183.443 48.5674C184.106 49.9724 184.415 51.5148 184.345 53.0634V59.9968C184.345 60.7078 184.388 61.7994 184.475 63.2714L180.704 63.266ZM178.284 60.066C179.063 59.7088 179.762 59.2032 180.342 58.578V55.378C179.446 55.2734 178.544 55.2146 177.641 55.202C175.974 55.202 174.82 55.4688 174.179 56.002C173.866 56.2628 173.618 56.5904 173.452 56.96C173.286 57.3296 173.208 57.7316 173.223 58.1354C173.193 58.4844 173.241 58.8354 173.361 59.1648C173.481 59.4944 173.671 59.7944 173.92 60.0448C174.446 60.4832 175.122 60.7064 175.81 60.6688C176.67 60.6558 177.517 60.4498 178.284 60.066Z" fill="white"/>
</g>
<mask id="mask7_1_59" style="mask-type:luminance" maskUnits="userSpaceOnUse" x="0" y="3" width="272" height="80">
<path d="M271.042 3H0.95826V83H271.042V3Z" fill="white"/>
</mask>
<g mask="url(#mask7_1_59)">
<path d="M187.466 59.086V38.5L191.485 38.18V58.378C191.428 58.9386 191.563 59.502 191.869 59.978C192.023 60.1418 192.213 60.2688 192.425 60.3492C192.636 60.4296 192.864 60.4614 193.089 60.442C193.456 60.4264 193.819 60.3654 194.17 60.2606L194.645 63.1194C194.193 63.288 193.724 63.4094 193.246 63.482C192.73 63.5702 192.208 63.6166 191.685 63.6206C188.872 63.6028 187.466 62.0904 187.466 59.086Z" fill="white"/>
</g>
<mask id="mask8_1_59" style="mask-type:luminance" maskUnits="userSpaceOnUse" x="0" y="3" width="272" height="80">
<path d="M271.042 3H0.95826V83H271.042V3Z" fill="white"/>
</mask>
<g mask="url(#mask8_1_59)">
<path d="M197.519 59.086V38.5L201.544 38.18V58.378C201.486 58.9386 201.622 59.502 201.927 59.978C202.081 60.1418 202.272 60.2688 202.482 60.3492C202.695 60.4296 202.922 60.4614 203.149 60.442C203.514 60.4264 203.878 60.3654 204.229 60.2606L204.699 63.1194C204.249 63.288 203.781 63.4096 203.305 63.482C202.786 63.5706 202.264 63.617 201.739 63.6206C198.929 63.6028 197.523 62.0904 197.519 59.086Z" fill="white"/>
</g>
<mask id="mask9_1_59" style="mask-type:luminance" maskUnits="userSpaceOnUse" x="0" y="3" width="272" height="80">
<path d="M271.042 3H0.95826V83H271.042V3Z" fill="white"/>
</mask>
<g mask="url(#mask9_1_59)">
<path d="M221.222 55.064H209.677C209.862 58.7156 211.622 60.5414 214.96 60.5414C215.817 60.537 216.672 60.4368 217.505 60.2426C218.357 60.047 219.19 59.7794 219.996 59.4426L220.881 62.1734C218.801 63.141 216.524 63.6264 214.227 63.592C212.58 63.639 210.948 63.2718 209.483 62.5254C208.215 61.8486 207.198 60.7916 206.578 59.5066C205.891 58.018 205.559 56.3946 205.606 54.76C205.559 53.047 205.914 51.3468 206.637 49.7894C207.253 48.4676 208.251 47.3546 209.505 46.5894C210.79 45.842 212.26 45.4618 213.751 45.4906C215.23 45.439 216.69 45.8436 217.926 46.648C219.042 47.412 219.905 48.482 220.412 49.7254C220.969 51.0798 221.244 52.5306 221.222 53.992V55.064ZM217.284 52.5306C217.292 51.3984 216.911 50.2968 216.204 49.4054C215.886 49.0548 215.495 48.7774 215.058 48.593C214.62 48.4088 214.146 48.3218 213.67 48.3386C213.192 48.329 212.716 48.4188 212.274 48.6026C211.833 48.7864 211.436 49.06 211.11 49.4054C210.348 50.2814 209.882 51.3702 209.775 52.52L217.284 52.5306Z" fill="white"/>
</g>
<mask id="mask10_1_59" style="mask-type:luminance" maskUnits="userSpaceOnUse" x="0" y="3" width="272" height="80">
<path d="M271.042 3H0.95826V83H271.042V3Z" fill="white"/>
</mask>
<g mask="url(#mask10_1_59)">
<path d="M224.281 50.222C224.281 49.2672 224.232 47.806 224.147 45.8486H227.927C227.992 46.334 228.052 46.9152 228.117 47.582C228.182 48.2486 228.214 48.8032 228.235 49.2246C228.642 48.5448 229.104 47.8992 229.618 47.294C230.064 46.7768 230.603 46.3446 231.206 46.0192C231.84 45.6808 232.553 45.51 233.275 45.5232C233.822 45.51 234.368 45.5766 234.895 45.7206L234.389 49.1766C233.755 48.9958 233.09 48.9498 232.44 49.0418C231.788 49.1338 231.162 49.3616 230.607 49.71C229.713 50.366 228.934 51.1624 228.3 52.0672V63.2672H224.281V50.222Z" fill="white"/>
</g>
<mask id="mask11_1_59" style="mask-type:luminance" maskUnits="userSpaceOnUse" x="0" y="3" width="272" height="80">
<path d="M271.042 3H0.95826V83H271.042V3Z" fill="white"/>
</mask>
<g mask="url(#mask11_1_59)">
<path d="M237.144 70.398C236.649 70.3192 236.165 70.2034 235.689 70.0512L236.425 67.1446C236.765 67.235 237.109 67.3078 237.456 67.3632C237.845 67.4314 238.24 67.4672 238.635 67.47C240.433 67.47 241.774 66.334 242.653 64.062L242.917 63.4166L236.408 45.8486H240.729L244.035 55.6672C244.458 56.9302 244.801 58.218 245.062 59.5232C245.37 58.2646 245.726 57.006 246.142 55.7472L249.437 45.8486H253.505L247.023 63.4966C246.533 64.9182 245.868 66.2742 245.04 67.534C244.41 68.4854 243.547 69.2664 242.534 69.806C241.446 70.3298 240.247 70.586 239.04 70.5526C238.404 70.555 237.77 70.5032 237.144 70.398Z" fill="white"/>
</g>
<mask id="mask12_1_59" style="mask-type:luminance" maskUnits="userSpaceOnUse" x="0" y="3" width="272" height="80">
<path d="M271.042 3H0.95826V83H271.042V3Z" fill="white"/>
</mask>
<g mask="url(#mask12_1_59)">
<path d="M85.226 17.6026H92.4104L92.2105 19.3199H87.3219V22.6425H91.9295V24.2425H87.3219V27.9225H92.4698L92.2915 29.6665H85.226V17.6026Z" fill="white"/>
</g>
<mask id="mask13_1_59" style="mask-type:luminance" maskUnits="userSpaceOnUse" x="0" y="3" width="272" height="80">
<path d="M271.042 3H0.95826V83H271.042V3Z" fill="white"/>
</mask>
<g mask="url(#mask13_1_59)">
<path d="M97.376 23.512L93.5946 17.6026H95.993L98.5642 21.944L101.265 17.6026H103.593L99.8121 23.4374L103.901 29.6666H101.47L98.5588 24.92L95.5932 29.6666H93.2651L97.376 23.512Z" fill="white"/>
</g>
<mask id="mask14_1_59" style="mask-type:luminance" maskUnits="userSpaceOnUse" x="0" y="3" width="272" height="80">
<path d="M271.042 3H0.95826V83H271.042V3Z" fill="white"/>
</mask>
<g mask="url(#mask14_1_59)">
<path d="M105.45 17.6026H108.745C110.29 17.6026 111.475 17.9137 112.3 18.5359C112.71 18.8546 113.036 19.2664 113.251 19.7362C113.465 20.2061 113.561 20.7201 113.531 21.2346C113.554 21.9695 113.367 22.6959 112.991 23.3306C112.624 23.9274 112.089 24.4056 111.452 24.7066C110.743 25.0374 109.967 25.2016 109.183 25.1866C108.639 25.179 108.097 25.1238 107.562 25.0214V29.6666H105.45V17.6026ZM110.744 22.9892C110.975 22.7707 111.154 22.5054 111.271 22.2117C111.387 21.918 111.438 21.6028 111.419 21.2879C111.447 20.9861 111.399 20.6822 111.279 20.4032C111.159 20.1241 110.972 19.8785 110.733 19.6879C110.125 19.3223 109.418 19.151 108.708 19.1972H107.562V23.4638C107.964 23.5352 108.37 23.5762 108.778 23.5864C109.486 23.639 110.188 23.4257 110.744 22.9892Z" fill="white"/>
</g>
<mask id="mask15_1_59" style="mask-type:luminance" maskUnits="userSpaceOnUse" x="0" y="3" width="272" height="80">
<path d="M271.042 3H0.95826V83H271.042V3Z" fill="white"/>
</mask>
<g mask="url(#mask15_1_59)">
<path d="M115.617 17.6026H117.724V27.8854H122.78L122.602 29.6666H115.617V17.6026Z" fill="white"/>
</g>
<mask id="mask16_1_59" style="mask-type:luminance" maskUnits="userSpaceOnUse" x="0" y="3" width="272" height="80">
<path d="M271.042 3H0.95826V83H271.042V3Z" fill="white"/>
</mask>
<g mask="url(#mask16_1_59)">
<path d="M125.989 29.074C125.103 28.5822 124.388 27.839 123.936 26.9408C123.445 25.9452 123.202 24.848 123.228 23.7408C123.203 22.5838 123.462 21.438 123.985 20.402C124.464 19.4683 125.217 18.6988 126.145 18.194C127.185 17.6564 128.349 17.3954 129.521 17.4367C130.63 17.4073 131.728 17.6666 132.703 18.1887C133.583 18.6823 134.293 19.4255 134.74 20.3221C135.221 21.3072 135.46 22.3911 135.436 23.4849C135.466 24.6547 135.204 25.8139 134.675 26.8609C134.191 27.7913 133.439 28.5597 132.514 29.0689C131.493 29.6053 130.349 29.8735 129.192 29.8475C128.073 29.8755 126.968 29.6084 125.989 29.074ZM131.455 27.5968C132.051 27.2072 132.514 26.6496 132.784 25.9968C133.087 25.2494 133.236 24.4496 133.222 23.6448C133.235 22.8546 133.103 22.0685 132.833 21.3248C132.59 20.6806 132.157 20.1232 131.59 19.7248C130.932 19.3274 130.177 19.1171 129.405 19.1171C128.634 19.1171 127.878 19.3274 127.22 19.7248C126.623 20.1339 126.158 20.7042 125.881 21.3675C125.573 22.0841 125.421 22.856 125.432 23.6341C125.419 24.4359 125.562 25.2325 125.854 25.9809C126.112 26.6655 126.586 27.2509 127.204 27.6519C127.823 28.0527 128.555 28.2483 129.295 28.2101C130.061 28.2289 130.816 28.0146 131.455 27.5968Z" fill="white"/>
</g>
<mask id="mask17_1_59" style="mask-type:luminance" maskUnits="userSpaceOnUse" x="0" y="3" width="272" height="80">
<path d="M271.042 3H0.95826V83H271.042V3Z" fill="white"/>
</mask>
<g mask="url(#mask17_1_59)">
<path d="M137.786 17.6026H141.611C142.731 17.5243 143.846 17.815 144.781 18.4293C145.14 18.7074 145.426 19.067 145.614 19.4773C145.802 19.8877 145.887 20.3369 145.862 20.7866C145.875 21.3714 145.741 21.9503 145.473 22.4719C145.238 22.9294 144.911 23.3341 144.511 23.6613C144.154 23.9461 143.753 24.1731 143.323 24.3333L147.104 29.6665H144.646L141.465 24.8665H139.914V29.6665H137.786V17.6026ZM141.097 23.3094C141.567 23.3194 142.031 23.2188 142.453 23.016C142.833 22.8358 143.154 22.5529 143.377 22.2C143.6 21.8233 143.714 21.3935 143.706 20.9573C143.728 20.7056 143.686 20.4524 143.585 20.2207C143.483 19.9889 143.324 19.7857 143.123 19.6293C142.617 19.3163 142.023 19.1689 141.427 19.208H139.898V23.3306L141.097 23.3094Z" fill="white"/>
</g>
<mask id="mask18_1_59" style="mask-type:luminance" maskUnits="userSpaceOnUse" x="0" y="3" width="272" height="80">
<path d="M271.042 3H0.95826V83H271.042V3Z" fill="white"/>
</mask>
<g mask="url(#mask18_1_59)">
<path d="M148.751 17.6026H155.952L155.747 19.3199H150.885V22.6425H155.449V24.2425H150.842V27.9225H155.99L155.833 29.6665H148.751V17.6026Z" fill="white"/>
</g>
<mask id="mask19_1_59" style="mask-type:luminance" maskUnits="userSpaceOnUse" x="0" y="3" width="272" height="80">
<path d="M271.042 3H0.95826V83H271.042V3Z" fill="white"/>
</mask>
<g mask="url(#mask19_1_59)">
<path d="M163.786 17.6026H165.892V29.6666H163.786V17.6026Z" fill="white"/>
</g>
<mask id="mask20_1_59" style="mask-type:luminance" maskUnits="userSpaceOnUse" x="0" y="3" width="272" height="80">
<path d="M271.042 3H0.95826V83H271.042V3Z" fill="white"/>
</mask>
<g mask="url(#mask20_1_59)">
<path d="M171.471 19.3414H167.69L167.874 17.6027H177.381L177.186 19.3414H173.583V29.6666H171.471V19.3414Z" fill="white"/>
</g>
<mask id="mask21_1_59" style="mask-type:luminance" maskUnits="userSpaceOnUse" x="0" y="3" width="272" height="80">
<path d="M271.042 3H0.95826V83H271.042V3Z" fill="white"/>
</mask>
<g mask="url(#mask21_1_59)">
<path d="M186.538 29.074C185.655 28.5818 184.941 27.8386 184.491 26.9408C183.995 25.9466 183.75 24.8486 183.778 23.7408C183.752 22.5838 184.012 21.438 184.534 20.402C185.015 19.4692 185.767 18.7001 186.695 18.194C187.727 17.6537 188.882 17.3855 190.049 17.4153C191.171 17.3855 192.281 17.6525 193.263 18.1887C194.145 18.6807 194.855 19.4243 195.3 20.3221C195.784 21.3068 196.024 22.3905 196.002 23.4849C196.032 24.6553 195.769 25.8151 195.235 26.8609C194.753 27.7925 194.001 28.5611 193.074 29.0689C192.053 29.6067 190.909 29.8749 189.752 29.8475C188.63 29.8773 187.521 29.6102 186.538 29.074ZM192.01 27.5968C192.603 27.2054 193.064 26.6482 193.334 25.9968C193.637 25.2494 193.786 24.4496 193.771 23.6448C193.785 22.8545 193.653 22.0685 193.382 21.3248C193.142 20.681 192.711 20.1235 192.145 19.7248C191.487 19.327 190.73 19.1164 189.958 19.1164C189.186 19.1164 188.429 19.327 187.77 19.7248C187.173 20.1339 186.708 20.7042 186.43 21.3675C186.126 22.0848 185.973 22.8563 185.982 23.6341C185.969 24.4359 186.112 25.2325 186.403 25.9809C186.661 26.6387 187.11 27.2065 187.694 27.6129C188.334 28.0295 189.089 28.2385 189.855 28.2101C190.62 28.2257 191.371 28.0118 192.01 27.5968Z" fill="white"/>
</g>
<mask id="mask22_1_59" style="mask-type:luminance" maskUnits="userSpaceOnUse" x="0" y="3" width="272" height="80">
<path d="M271.042 3H0.95826V83H271.042V3Z" fill="white"/>
</mask>
<g mask="url(#mask22_1_59)">
<path d="M198.34 17.6026H200.76L206.805 26.952C206.75 26.0614 206.73 25.2454 206.73 24.4934V17.6026H208.684V29.6666H206.341L200.203 20.168C200.263 21.2347 200.295 22.2 200.295 23.0374V29.6666H198.34V17.6026Z" fill="white"/>
</g>
<mask id="mask23_1_59" style="mask-type:luminance" maskUnits="userSpaceOnUse" x="0" y="3" width="272" height="80">
<path d="M271.042 3H0.95826V83H271.042V3Z" fill="white"/>
</mask>
<g mask="url(#mask23_1_59)">
<path fill-rule="evenodd" clip-rule="evenodd" d="M55.5174 17.6666H33.0952C22.5238 17.6666 18.6562 21.4852 18.6562 31.9226V54.0766C18.6562 64.5138 22.5238 68.3326 33.0952 68.3326H55.5174C66.0888 68.3326 69.9619 64.5138 69.9619 54.0766V31.9226C69.9726 21.4854 66.105 17.6666 55.5174 17.6666Z" fill="#C8102E"/>
</g>
<mask id="mask24_1_59" style="mask-type:luminance" maskUnits="userSpaceOnUse" x="0" y="3" width="272" height="80">
<path d="M271.042 3H0.95826V83H271.042V3Z" fill="white"/>
</mask>
<g mask="url(#mask24_1_59)">
<path d="M28.8149 43H30.1762V49.6294H28.8149V46.936H25.7414V49.6294H24.3801V43H25.7414V45.6666H28.8149V43ZM36.4855 46.792C36.4855 47.8586 35.9453 48.4454 34.9622 48.4454C33.9792 48.4454 33.4282 47.8586 33.4282 46.7334V43H32.0669V46.7866C32.0669 48.648 33.1148 49.7146 34.9406 49.7146C36.7665 49.7146 37.8468 48.648 37.8468 46.728V43H36.4855V46.792ZM52.2155 47.5546L50.6922 43H49.5741L48.0617 47.56L46.5761 43H45.1285L47.4673 49.6294H48.5965L50.1143 45.2774L51.6376 49.6294H52.7775L55.1163 43H53.7012L52.2155 47.5546ZM57.5526 46.7706H60.032V45.5706H57.5526V44.216H61.1502V43H56.213V49.6134H61.2798V48.4186H57.5526V46.7706ZM62.9004 49.6134H64.2454V43H62.9004V49.6134ZM40.5369 48.2426L39.9266 49.6186H38.5382L41.4713 43H42.6705L45.6147 49.6186H44.2101L43.6321 48.248L40.5369 48.2426ZM41.0447 47.048H43.0919L42.0657 44.68L41.0447 47.048Z" fill="white"/>
</g>
<mask id="mask25_1_59" style="mask-type:luminance" maskUnits="userSpaceOnUse" x="0" y="3" width="272" height="80">
<path d="M271.042 3H0.95826V83H271.042V3Z" fill="white"/>
</mask>
<g mask="url(#mask25_1_59)">
<path d="M44.3134 34.568C42.0487 34.5666 39.8773 33.6778 38.276 32.0968C36.6747 30.5158 35.7745 28.3718 35.7731 26.136H36.9776C36.9776 28.0568 37.7506 29.899 39.1262 31.2574C40.5019 32.6156 42.3677 33.3786 44.3134 33.3786C46.2588 33.3786 48.1247 32.6156 49.5003 31.2574C50.8762 29.899 51.649 28.0568 51.649 26.136H52.8536C52.8522 28.3718 51.952 30.5158 50.3507 32.0968C48.7494 33.6778 46.5779 34.5666 44.3134 34.568Z" fill="white"/>
</g>
</g>
<defs>
<clipPath id="clip0_1_59">
<rect width="272" height="80" fill="white" transform="translate(0 3)"/>
</clipPath>
</defs>
</svg>
