<svg width="564" height="168" fill="none" version="1.1" viewBox="0 0 564 168" xmlns="http://www.w3.org/2000/svg">
	<g transform="matrix(4.2003 0 0 4.2003 -1.9984 3.8273e-7)">
		<path d="m124.88 0h-115.6-0.90667c-0.663 0.0096405-1.3244 0.068469-1.9787 0.176-0.65007 0.1101-1.2795 0.31872-1.8667 0.61867-0.59058 0.30193-1.1304 0.69421-1.6 1.1627-0.4695 0.46869-0.8619 1.0087-1.1627 1.6-0.30358 0.59549-0.51403 1.234-0.624 1.8933-0.11052 0.65301-0.16936 1.3137-0.176 1.976-0.016 0.30666-0.016 0.60533-0.016 0.90933v23.331c0 0.3066 0 0.6053 0.016 0.912 0.006863 0.6622 0.065706 1.3229 0.176 1.976 0.10902 0.6499 0.31675 1.2794 0.616 1.8666 0.60492 1.1944 1.5719 2.1669 2.7627 2.7787 0.5874 0.3005 1.2167 0.5108 1.8667 0.624 0.65436 0.1067 1.3157 0.1646 1.9787 0.1733h0.90667 116.67 0.909c0.661-0.0081 1.321-0.0661 1.973-0.1733 0.656-0.1136 1.291-0.3239 1.886-0.624 0.592-0.2988 1.132-0.6914 1.6-1.1627 0.471-0.4679 0.866-1.008 1.168-1.6 0.296-0.5879 0.502-1.2172 0.61-1.8666 0.111-0.6532 0.172-1.3137 0.184-1.976v-0.912-1.0667-21.203-1.0667-0.90934c-0.012-0.66233-0.073-1.3228-0.184-1.976-0.109-0.64916-0.315-1.2783-0.61-1.8667-0.605-1.1978-1.57-2.1754-2.76-2.7947-0.595-0.29687-1.23-0.50272-1.886-0.61067-0.652-0.10812-1.312-0.16695-1.973-0.176h-0.909z" clip-path="url(#clipPath526)" fill="#b6b6b6"/>
		<path d="m9.2902 39.136h-0.89334c-0.6182-8e-3 -1.235-0.0615-1.8453-0.16-0.56813-0.0965-1.1189-0.2762-1.6347-0.5333-1.0246-0.5252-1.8592-1.3579-2.3867-2.3814-0.25958-0.5156-0.4394-1.0677-0.53334-1.6373-0.10196-0.6117-0.15635-1.2305-0.16266-1.8507 0-0.208-0.016-0.9013-0.016-0.9013v-23.336s0-0.68266 0.016-0.88266c0.00461-0.62102 0.05811-1.2407 0.16-1.8533 0.09272-0.57161 0.27259-1.1256 0.53333-1.6427 0.2592-0.50879 0.59866-0.97251 1.0053-1.3733 0.40617-0.40658 0.87308-0.74755 1.384-1.0107 0.51459-0.25761 1.0646-0.43735 1.632-0.53333 0.61193-0.10063 1.2306-0.15501 1.8507-0.16266h118.45c0.614 0.005259 1.228 0.058757 1.834 0.16 0.573 0.09401 1.129 0.27381 1.648 0.53334 1.027 0.52975 1.861 1.3695 2.384 2.4 0.259 0.51312 0.439 1.0624 0.534 1.6293 0.102 0.61722 0.159 1.2411 0.17 1.8667v0.88 1.0667 21.173 1.0666 0.92c-9e-3 0.6132-0.066 1.2247-0.168 1.8294-0.091 0.5736-0.271 1.1296-0.533 1.648-0.53 1.0196-1.363 1.8497-2.384 2.376-0.518 0.2598-1.073 0.4396-1.645 0.5333-0.611 0.0991-1.228 0.1526-1.846 0.16h-0.885-116.67z" clip-path="url(#clipPath520)" fill="#000"/>
		<g fill="#fff">
			<path d="m50.445 27.003h-4.6907l-1.1387 3.1306h-2.0613l4.5867-11.696h1.9466l4.6907 11.696h-2.1573zm-4.0934-1.6h3.4934l-1.2507-3.3494c-0.1707-0.4613-0.3413-0.9733-0.5067-1.5333-0.152 0.496-0.3173 1-0.4933 1.5173z" clip-path="url(#clipPath514)"/>
			<path d="m54.608 23.555c0-0.6454-0.0214-1.3565-0.064-2.1334h1.8666c0.0702 0.3657 0.1183 0.7353 0.144 1.1067 0.3267-0.3914 0.7341-0.7075 1.1944-0.9266 0.4603-0.2192 0.9626-0.3361 1.4723-0.3427 0.5977-0.0095 1.1846 0.1595 1.6858 0.4854 0.5011 0.3259 0.8937 0.7938 1.1276 1.3439 0.328 0.7563 0.4838 1.5761 0.4559 2.4 0.0203 0.8984-0.1619 1.7897-0.5333 2.608-0.3106 0.6791-0.8178 1.2495-1.456 1.6373-0.6566 0.3795-1.4044 0.5722-2.1627 0.5574-0.5966-4e-4 -1.1889-0.1014-1.752-0.2987v3.608l-1.9946 0.1707zm5.2426 4.4453c0.4054-0.5333 0.6107-1.3333 0.6107-2.4 0-0.9724-0.1689-1.6836-0.5067-2.1333-0.1526-0.2091-0.3536-0.378-0.5858-0.4922-0.2323-0.1143-0.4888-0.1705-0.7475-0.1638-0.3726-5e-3 -0.7402 0.0869-1.0667 0.2666-0.3467 0.1965-0.6622 0.4437-0.936 0.7334v4.6666c0.221 0.1042 0.4538 0.1812 0.6934 0.2294 0.2576 0.0557 0.5204 0.0843 0.784 0.0853 0.3347 0.02 0.6694-0.0416 0.975-0.1795 0.3057-0.138 0.5732-0.3482 0.7796-0.6125z" clip-path="url(#clipPath508)"/>
			<path d="m63.704 23.555c0-0.6454-0.0213-1.3565-0.064-2.1334h1.8667c0.0723 0.3654 0.1213 0.7351 0.1467 1.1067 0.7768-0.8462 1.6657-1.2693 2.6666-1.2693 0.5977-0.0095 1.1846 0.1595 1.6858 0.4854 0.5011 0.3259 0.8937 0.7938 1.1276 1.3439 0.328 0.7563 0.4838 1.5761 0.4559 2.4 0.0245 0.8973-0.1532 1.7887-0.52 2.608-0.3113 0.6795-0.8195 1.2499-1.4586 1.6373-0.6565 0.3798-1.4044 0.5726-2.1627 0.5574-0.5966-4e-4 -1.1889-0.1014-1.752-0.2987v3.608l-1.9946 0.1707zm5.2507 4.4453c0.4053-0.5458 0.608-1.3458 0.608-2.4 0-0.9724-0.168-1.6836-0.504-2.1333-0.1526-0.2091-0.3537-0.378-0.5859-0.4922-0.2322-0.1143-0.4887-0.1705-0.7474-0.1638-0.3726-0.0045-0.7401 0.0873-1.0667 0.2666-0.3468 0.1965-0.6623 0.4437-0.936 0.7334v4.6666c0.2213 0.1034 0.454 0.1804 0.6933 0.2294 0.2577 0.0557 0.5204 0.0843 0.784 0.0853 0.3347 0.0196 0.6692-0.0422 0.9748-0.1802 0.3056-0.1379 0.5732-0.3478 0.7799-0.6118z" clip-path="url(#clipPath502)"/>
			<path d="m75.256 29.581c-0.8521-0.4673-1.5443-1.1799-1.9866-2.0453-0.4835-0.9779-0.7215-2.0588-0.6934-3.1493-0.0346-1.1668 0.2415-2.3217 0.8-3.3467 0.5043-0.8895 1.2618-1.6088 2.176-2.0667 0.9609-0.4694 2.0188-0.706 3.088-0.6906 0.6485-0.0029 1.2949 0.0724 1.9254 0.224 0.5896 0.1388 1.162 0.3427 1.7066 0.608l-0.5173 1.5333c-0.9433-0.4758-1.9811-0.7346-3.0373-0.7573-0.7456-0.0125-1.4814 0.1715-2.1334 0.5333-0.6186 0.3551-1.1158 0.8886-1.4266 1.5307-0.3575 0.7615-0.531 1.5964-0.5067 2.4373-0.0133 0.7576 0.1189 1.5108 0.3893 2.2187 0.2456 0.6265 0.6774 1.1626 1.2374 1.536 0.6379 0.3991 1.3815 0.5961 2.1333 0.5653 0.3896-1e-3 0.7785-0.034 1.1627-0.0987 0.3717-0.0591 0.737-0.1537 1.0906-0.2826v-2.3787h-2.704v-1.5493h4.6427v4.9306c-0.6736 0.3139-1.379 0.5544-2.104 0.7174-0.7189 0.1656-1.4542 0.2497-2.192 0.2506-1.0618 0.0255-2.1123-0.2224-3.0507-0.72z" clip-path="url(#clipPath496)"/>
			<path d="m89.688 30.133c-0.0754-0.3808-0.1218-0.7668-0.1387-1.1546-0.3331 0.3876-0.7401 0.7048-1.1973 0.9333-0.5161 0.2614-1.0882 0.3932-1.6667 0.384-0.4733 6e-3 -0.9419-0.0952-1.3706-0.296-0.4079-0.1913-0.7488-0.5006-0.9787-0.888-0.2548-0.439-0.3813-0.9407-0.3653-1.448-0.015-0.3848 0.0599-0.7678 0.2186-1.1187 0.1588-0.3508 0.3971-0.6599 0.696-0.9026 0.608-0.5049 1.6222-0.7565 3.0427-0.7547 0.5291-2e-4 1.0575 0.0372 1.5813 0.112v-0.1707c0-0.768-0.1635-1.3102-0.4906-1.6266-0.3911-0.3365-0.8986-0.506-1.4134-0.472-0.461 0.0056-0.9196 0.0683-1.3653 0.1866-0.4415 0.1065-0.8719 0.2547-1.2853 0.4427l-0.3147-1.4507c0.4522-0.193 0.9219-0.3421 1.4027-0.4453 0.6046-0.1367 1.2227-0.2047 1.8426-0.2027 0.6568-0.0179 1.3103 0.0992 1.92 0.344 0.5363 0.2371 0.973 0.654 1.2347 1.1787 0.3273 0.7025 0.48 1.4737 0.4453 2.248v3.4667c0 0.3555 0.0214 0.9013 0.064 1.6373zm-1.1947-1.6c0.3844-0.1786 0.7297-0.4314 1.016-0.744v-1.6c-0.4426-0.0523-0.8876-0.0817-1.3333-0.088-0.8231 0-1.3929 0.1334-1.7093 0.4-0.1544 0.1304-0.2771 0.2942-0.3589 0.479-0.0817 0.1848-0.1204 0.3858-0.1131 0.5877-0.0145 0.1745 0.0088 0.35 0.0681 0.5147 0.0594 0.1648 0.1534 0.3148 0.2759 0.44 0.2599 0.2192 0.5938 0.3308 0.9333 0.312 0.4247-0.0065 0.8424-0.1095 1.2213-0.3014z" clip-path="url(#clipPath490)"/>
			<path d="m93.026 28.043v-10.293l1.984-0.16v10.099c-0.0282 0.2803 0.0385 0.562 0.1894 0.8 0.0762 0.0819 0.1701 0.1454 0.2745 0.1856s0.2167 0.0561 0.3281 0.0464c0.1809-0.0078 0.3601-0.0383 0.5334-0.0907l0.2347 1.4294c-0.2233 0.0843-0.4548 0.145-0.6907 0.1813-0.2546 0.0441-0.5123 0.0673-0.7707 0.0693-1.3884-0.0089-2.0827-0.7644-2.0827-2.2666z" clip-path="url(#clipPath484)"/>
			<path d="m97.989 28.043v-10.293l1.9867-0.16v10.099c-0.0283 0.2803 0.0384 0.562 0.1894 0.8 0.076 0.0819 0.17 0.1454 0.274 0.1856 0.105 0.0402 0.217 0.0561 0.329 0.0464 0.18-0.0078 0.36-0.0383 0.533-0.0907l0.232 1.4294c-0.222 0.0843-0.453 0.1451-0.688 0.1813-0.256 0.0443-0.514 0.0675-0.773 0.0693-1.3871-0.0089-2.0813-0.7644-2.0831-2.2666z" clip-path="url(#clipPath478)"/>
			<path d="m109.69 26.032h-5.699c0.091 1.8258 0.96 2.7387 2.608 2.7387 0.423-0.0022 0.845-0.0523 1.256-0.1494 0.421-0.0978 0.832-0.2316 1.23-0.4l0.437 1.3654c-1.027 0.4838-2.151 0.7265-3.285 0.7093-0.813 0.0235-1.619-0.1601-2.342-0.5333-0.626-0.3384-1.128-0.8669-1.434-1.5094-0.339-0.7443-0.503-1.556-0.48-2.3733-0.023-0.8565 0.152-1.7066 0.509-2.4853 0.304-0.6609 0.797-1.2174 1.416-1.6 0.634-0.3737 1.36-0.5638 2.096-0.5494 0.73-0.0258 1.451 0.1765 2.061 0.5787 0.551 0.382 0.977 0.917 1.227 1.5387 0.275 0.6772 0.411 1.4026 0.4 2.1333zm-1.944-1.2667c4e-3 -0.5661-0.184-1.1169-0.533-1.5626-0.157-0.1753-0.35-0.314-0.566-0.4062-0.216-0.0921-0.45-0.1356-0.685-0.1272-0.236-0.0048-0.471 0.0401-0.689 0.132s-0.414 0.2287-0.575 0.4014c-0.376 0.438-0.606 0.9824-0.659 1.5573z" clip-path="url(#clipPath472)"/>
			<path d="m111.2 23.611c0-0.4774-0.024-1.208-0.066-2.1867h1.866c0.032 0.2427 0.062 0.5333 0.094 0.8667 0.032 0.3333 0.048 0.6106 0.058 0.8213 0.201-0.3399 0.429-0.6627 0.683-0.9653 0.22-0.2586 0.486-0.4747 0.784-0.6374 0.313-0.1692 0.665-0.2546 1.021-0.248 0.27-0.0066 0.54 0.0267 0.8 0.0987l-0.25 1.728c-0.313-0.0904-0.641-0.1134-0.962-0.0674-0.322 0.046-0.631 0.1599-0.905 0.3341-0.441 0.328-0.826 0.7262-1.139 1.1786v5.6h-1.984z" clip-path="url(#clipPath466)"/>
			<path d="m117.55 33.699c-0.244-0.0394-0.483-0.0973-0.718-0.1734l0.363-1.4533c0.168 0.0452 0.338 0.0816 0.509 0.1093 0.192 0.0341 0.387 0.052 0.582 0.0534 0.888 0 1.55-0.568 1.984-1.704l0.13-0.3227-3.213-8.784h2.133l1.632 4.9093c0.209 0.6315 0.378 1.2754 0.507 1.928 0.152-0.6293 0.328-1.2586 0.533-1.888l1.627-4.9493h2.008l-3.2 8.824c-0.242 0.7108-0.57 1.3888-0.979 2.0187-0.311 0.4757-0.737 0.8662-1.237 1.136-0.537 0.2619-1.129 0.39-1.725 0.3733-0.314 0.0012-0.627-0.0247-0.936-0.0773z" clip-path="url(#clipPath460)"/>
			<path d="m42.554 7.3013h3.5467l-0.0987 0.85867h-2.4133v1.6613h2.2746v0.79997h-2.2746v1.84h2.5413l-0.088 0.872h-3.488z" clip-path="url(#clipPath454)"/>
			<path d="m48.552 10.256-1.8667-2.9547h1.184l1.2693 2.1707 1.3333-2.1707h1.1494l-1.8667 2.9174 2.0187 3.1146h-1.2l-1.4374-2.3733-1.464 2.3733h-1.1493z" clip-path="url(#clipPath448)"/>
			<path d="m52.538 7.3013h1.6267c0.7626 0 1.3475 0.15556 1.7546 0.46667 0.2025 0.15933 0.3636 0.36521 0.4694 0.60014 0.1059 0.23493 0.1534 0.49194 0.1386 0.74919 0.0113 0.36744-0.0811 0.73064-0.2666 1.048-0.1811 0.2984-0.4452 0.5375-0.76 0.688-0.3498 0.1654-0.7332 0.2475-1.12 0.24-0.2686-0.0038-0.5363-0.0314-0.8-0.0826v2.3226h-1.0427zm2.6133 2.6933c0.1138-0.10925 0.2025-0.24188 0.2601-0.38874 0.0575-0.14686 0.0825-0.30446 0.0733-0.46192 0.0135-0.15091-0.0103-0.30283-0.0693-0.44235-0.0591-0.13953-0.1516-0.26236-0.2694-0.35765-0.3001-0.18278-0.6494-0.26846-1-0.24534h-0.5653v2.1333c0.1981 0.0357 0.3987 0.0562 0.6 0.0613 0.3496 0.0263 0.6962-0.0804 0.9706-0.29864z" clip-path="url(#clipPath442)"/>
			<path d="m57.557 7.3013h1.04v5.1414h2.496l-0.088 0.8906h-3.448z" clip-path="url(#clipPath436)"/>
			<path d="m62.677 13.037c-0.4371-0.2459-0.7901-0.6175-1.0133-1.0666-0.2426-0.4978-0.3624-1.0464-0.3493-1.6-0.0128-0.57851 0.1153-1.1514 0.3733-1.6694 0.2365-0.46687 0.6082-0.85161 1.0667-1.104 0.5132-0.26881 1.0876-0.39932 1.6666-0.37867 0.5475-0.01469 1.0892 0.11499 1.5707 0.376 0.4344 0.2468 0.7847 0.61842 1.0053 1.0667 0.2378 0.49259 0.3557 1.0345 0.344 1.5814 0.0145 0.5849-0.1146 1.1645-0.376 1.688-0.2387 0.4652-0.6099 0.8494-1.0666 1.104-0.5043 0.2682-1.069 0.4023-1.64 0.3893-0.5522 0.014-1.098-0.1195-1.5814-0.3867zm2.6987-0.7386c0.294-0.1948 0.5225-0.4736 0.656-0.8 0.1496-0.3737 0.2231-0.7736 0.216-1.176 0.0067-0.39512-0.0584-0.78816-0.192-1.16-0.1197-0.32209-0.3334-0.60081-0.6133-0.8-0.3248-0.19869-0.698-0.30383-1.0787-0.30383s-0.754 0.10514-1.0787 0.30383c-0.2948 0.20453-0.5244 0.48969-0.6613 0.82134-0.1517 0.35829-0.2271 0.74428-0.2214 1.1333-0.0064 0.4009 0.0642 0.7992 0.2081 1.1734 0.1277 0.3423 0.3613 0.635 0.6668 0.8355 0.3055 0.2004 0.6669 0.2982 1.0318 0.2791 0.3786 0.0094 0.7509-0.0977 1.0667-0.3066z" clip-path="url(#clipPath430)"/>
			<path d="m68.501 7.3013h1.888c0.5531-0.03915 1.1036 0.10621 1.5653 0.41334 0.1771 0.13907 0.3181 0.31884 0.411 0.52403 0.0928 0.20519 0.1348 0.42976 0.1223 0.65463 0.0063 0.29241-0.0597 0.58184-0.192 0.84267-0.1157 0.22871-0.2773 0.4311-0.4746 0.5947-0.1765 0.1424-0.3745 0.2559-0.5867 0.336l1.8667 2.6666h-1.2134l-1.5706-2.4h-0.7654v2.4h-1.0506zm1.6346 2.8534c0.2316 5e-3 0.4611-0.0453 0.6694-0.1467 0.1875-0.09008 0.3457-0.23156 0.456-0.408 0.11-0.18833 0.1663-0.40324 0.1626-0.62133 0.0108-0.12588-0.0099-0.25245-0.0602-0.36834-0.0503-0.1159-0.1285-0.2175-0.2278-0.29566-0.25-0.15652-0.543-0.23024-0.8373-0.21067h-0.7547v2.0613z" clip-path="url(#clipPath424)"/>
			<path d="m73.914 7.3013h3.5547l-0.1013 0.85867h-2.4v1.6613h2.2533v0.79997h-2.2747v1.84h2.5414l-0.0774 0.872h-3.496z" clip-path="url(#clipPath418)"/>
			<path d="m81.336 7.3013h1.04v6.032h-1.04z" clip-path="url(#clipPath412)"/>
			<path d="m85.13 8.1707h-1.8667l0.0907-0.86933h4.6933l-0.096 0.86933h-1.7786v5.1626h-1.0427z" clip-path="url(#clipPath406)"/>
			<path d="m92.568 13.037c-0.4362-0.2461-0.7884-0.6177-1.0106-1.0666-0.2448-0.4971-0.3656-1.0461-0.352-1.6-0.0128-0.57851 0.1154-1.1514 0.3733-1.6694 0.2372-0.46639 0.6087-0.85095 1.0667-1.104 0.5093-0.27014 1.0797-0.40424 1.656-0.38934 0.5539-0.01491 1.1017 0.11859 1.5866 0.38667 0.4351 0.24601 0.7855 0.61784 1.0054 1.0667 0.2387 0.49236 0.3575 1.0342 0.3466 1.5814 0.0149 0.5852-0.1152 1.1651-0.3786 1.688-0.238 0.4658-0.6093 0.8501-1.0667 1.104-0.504 0.2689-1.0689 0.403-1.64 0.3893-0.5539 0.0149-1.1017-0.1186-1.5867-0.3867zm2.7014-0.7386c0.2925-0.1957 0.52-0.4743 0.6533-0.8 0.1496-0.3737 0.2231-0.7736 0.216-1.176 0.0067-0.39513-0.0584-0.78816-0.192-1.16-0.1186-0.32191-0.3314-0.60066-0.6107-0.8-0.3251-0.19892-0.6988-0.30419-1.08-0.30419-0.3811 0-0.7548 0.10527-1.08 0.30419-0.2948 0.20453-0.5244 0.48969-0.6613 0.82133-0.1504 0.35868-0.2258 0.7444-0.2213 1.1333-0.0064 0.4009 0.0642 0.7992 0.208 1.1734 0.1272 0.3289 0.349 0.6128 0.6373 0.816 0.3157 0.2083 0.6887 0.3128 1.0667 0.2986 0.3775 0.0078 0.7485-0.0991 1.064-0.3066z" clip-path="url(#clipPath400)"/>
			<path d="m98.394 7.3013h1.1947l2.9841 4.6747c-0.027-0.4453-0.037-0.8533-0.037-1.2293v-3.4454h0.965v6.032h-1.157l-3.0298-4.7493c0.0294 0.53333 0.0454 1.016 0.0454 1.4347v3.3146h-0.9654z" clip-path="url(#clipPath394)"/>
		</g>
		<path d="m27.888 7.3333h-11.069c-5.2187 0-7.128 1.9093-7.128 7.128v11.077c0 5.2186 1.9093 7.128 7.128 7.128h11.069c5.2187 0 7.1307-1.9094 7.1307-7.128v-11.077c0.0053-5.2186-1.904-7.128-7.1307-7.128z" clip-path="url(#clipPath388)" clip-rule="evenodd" fill="#c8102e" fill-rule="evenodd"/>
		<path d="m14.706 20h0.672v3.3147h-0.672v-1.3467h-1.5173v1.3467h-0.672v-3.3147h0.672v1.3333h1.5173zm3.7867 1.896c0 0.5333-0.2667 0.8267-0.752 0.8267s-0.7573-0.2934-0.7573-0.856v-1.8667h-0.672v1.8933c0 0.9307 0.5173 1.464 1.4186 1.464 0.9014 0 1.4347-0.5333 1.4347-1.4933v-1.864h-0.672zm7.7653 0.3813-0.752-2.2773h-0.552l-0.7466 2.28-0.7334-2.28h-0.7146l1.1546 3.3147h0.5574l0.7493-2.176 0.752 2.176h0.5627l1.1546-3.3147h-0.6986zm2.6347-0.392h1.224v-0.6h-1.224v-0.6773h1.776v-0.608h-2.4373v3.3067h2.5013v-0.5974h-1.84zm2.64 1.4214h0.664v-3.3067h-0.664zm-11.04-0.6854-0.3013 0.688h-0.6854l1.448-3.3093h0.592l1.4534 3.3093h-0.6934l-0.2853-0.6853zm0.2507-0.5973h1.0106l-0.5066-1.184z" clip-path="url(#clipPath382)" fill="#fff"/>
		<path d="m22.357 15.784c-1.118-7e-4 -2.1899-0.4451-2.9804-1.2356s-1.2349-1.8625-1.2356-2.9804h0.5946c0 0.9604 0.3816 1.8815 1.0607 2.5607 0.6791 0.6791 1.6002 1.0606 2.5607 1.0606 0.9604 0 1.8815-0.3815 2.5606-1.0606 0.6792-0.6792 1.0607-1.6003 1.0607-2.5607h0.5947c-7e-4 1.1179-0.4451 2.1899-1.2356 2.9804s-1.8625 1.2349-2.9804 1.2356z" clip-path="url(#clipPath376)" fill="#fff"/>
	</g>
	<defs>
		<clipPath id="clipPath376">
			<rect x=".95422" width="133.33" height="40" fill="#fff"/>
		</clipPath>
		<clipPath id="clipPath382">
			<rect x=".95422" width="133.33" height="40" fill="#fff"/>
		</clipPath>
		<clipPath id="clipPath388">
			<rect x=".95422" width="133.33" height="40" fill="#fff"/>
		</clipPath>
		<clipPath id="clipPath394">
			<rect x=".95422" width="133.33" height="40" fill="#fff"/>
		</clipPath>
		<clipPath id="clipPath400">
			<rect x=".95422" width="133.33" height="40" fill="#fff"/>
		</clipPath>
		<clipPath id="clipPath406">
			<rect x=".95422" width="133.33" height="40" fill="#fff"/>
		</clipPath>
		<clipPath id="clipPath412">
			<rect x=".95422" width="133.33" height="40" fill="#fff"/>
		</clipPath>
		<clipPath id="clipPath418">
			<rect x=".95422" width="133.33" height="40" fill="#fff"/>
		</clipPath>
		<clipPath id="clipPath424">
			<rect x=".95422" width="133.33" height="40" fill="#fff"/>
		</clipPath>
		<clipPath id="clipPath430">
			<rect x=".95422" width="133.33" height="40" fill="#fff"/>
		</clipPath>
		<clipPath id="clipPath436">
			<rect x=".95422" width="133.33" height="40" fill="#fff"/>
		</clipPath>
		<clipPath id="clipPath442">
			<rect x=".95422" width="133.33" height="40" fill="#fff"/>
		</clipPath>
		<clipPath id="clipPath448">
			<rect x=".95422" width="133.33" height="40" fill="#fff"/>
		</clipPath>
		<clipPath id="clipPath454">
			<rect x=".95422" width="133.33" height="40" fill="#fff"/>
		</clipPath>
		<clipPath id="clipPath460">
			<rect x=".95422" width="133.33" height="40" fill="#fff"/>
		</clipPath>
		<clipPath id="clipPath466">
			<rect x=".95422" width="133.33" height="40" fill="#fff"/>
		</clipPath>
		<clipPath id="clipPath472">
			<rect x=".95422" width="133.33" height="40" fill="#fff"/>
		</clipPath>
		<clipPath id="clipPath478">
			<rect x=".95422" width="133.33" height="40" fill="#fff"/>
		</clipPath>
		<clipPath id="clipPath484">
			<rect x=".95422" width="133.33" height="40" fill="#fff"/>
		</clipPath>
		<clipPath id="clipPath490">
			<rect x=".95422" width="133.33" height="40" fill="#fff"/>
		</clipPath>
		<clipPath id="clipPath496">
			<rect x=".95422" width="133.33" height="40" fill="#fff"/>
		</clipPath>
		<clipPath id="clipPath502">
			<rect x=".95422" width="133.33" height="40" fill="#fff"/>
		</clipPath>
		<clipPath id="clipPath508">
			<rect x=".95422" width="133.33" height="40" fill="#fff"/>
		</clipPath>
		<clipPath id="clipPath514">
			<rect x=".95422" width="133.33" height="40" fill="#fff"/>
		</clipPath>
		<clipPath id="clipPath520">
			<rect x=".95422" width="133.33" height="40" fill="#fff"/>
		</clipPath>
		<clipPath id="clipPath526">
			<rect x=".95422" width="133.33" height="40" fill="#fff"/>
		</clipPath>
	</defs>
</svg>
