<svg width="249" height="87" viewBox="0 0 249 87" fill="none" xmlns="http://www.w3.org/2000/svg">
<g clip-path="url(#clip0_1_59)">
<path d="M228.896 3.00026H19.8162C19.0541 3.00026 18.3011 3.00026 17.541 3.00426C16.9047 3.00826 16.2735 3.01988 15.6311 3.02966C14.2355 3.04546 12.8432 3.16361 11.4663 3.38308C10.0914 3.60733 8.75947 4.03009 7.51569 4.63708C6.27343 5.2492 5.13834 6.0446 4.1516 6.9944C3.15969 7.94153 2.33285 9.03629 1.70288 10.2366C1.07117 11.4345 0.633143 12.7181 0.403923 14.0432C0.172524 15.3666 0.048006 16.7053 0.0314867 18.0472C0.0121998 18.6604 0.010163 19.2757 0 19.8889V66.1175C0.010163 66.7385 0.0121998 67.3401 0.0314867 67.9613C0.0480111 69.3031 0.172529 70.6417 0.403923 71.9651C0.63251 73.2909 1.07056 74.5753 1.70288 75.7737C2.33256 76.9701 3.15952 78.0604 4.1516 79.0023C5.1346 79.9563 6.27042 80.7522 7.51569 81.3597C8.75946 81.9683 10.0912 82.3936 11.4663 82.6213C12.8435 82.839 14.2356 82.9572 15.6311 82.9749C16.2735 82.9885 16.9047 82.9963 17.541 82.9963C18.3011 83.0003 19.0541 83.0003 19.8162 83.0003H228.896C229.643 83.0003 230.402 83.0003 231.149 82.9963C231.782 82.9963 232.432 82.9885 233.065 82.9749C234.458 82.9581 235.847 82.8399 237.222 82.6213C238.601 82.392 239.938 81.9668 241.188 81.3597C242.432 80.7519 243.566 79.956 244.549 79.0023C245.538 78.0567 246.367 76.9672 247.004 75.7737C247.632 74.5744 248.066 73.2901 248.291 71.9651C248.523 70.6415 248.652 69.3032 248.677 67.9613C248.685 67.3401 248.685 66.7385 248.685 66.1175C248.701 65.3909 248.701 64.6683 248.701 63.9299V22.0725C248.701 21.3401 248.701 20.6135 248.685 19.8889C248.685 19.2757 248.685 18.6604 248.677 18.0471C248.652 16.7051 248.523 15.3667 248.291 14.0431C248.065 12.7188 247.631 11.4353 247.004 10.2365C245.721 7.83065 243.687 5.87231 241.188 4.6369C239.938 4.03139 238.601 3.60874 237.222 3.3829C235.848 3.16247 234.458 3.04428 233.065 3.02938C232.432 3.01962 231.782 3.0079 231.149 3.004C230.402 3 229.643 3.00026 228.896 3.00026Z" fill="#A6A6A6"/>
<path d="M17.5511 81.25C16.9179 81.25 16.3 81.2422 15.6717 81.2286C14.3702 81.2123 13.0718 81.1032 11.787 80.9024C10.5891 80.7039 9.42856 80.3345 8.34378 79.8066C7.26896 79.283 6.28863 78.5965 5.44036 77.7734C4.57981 76.9599 3.86336 76.0165 3.31941 74.9804C2.76946 73.9376 2.38886 72.8198 2.19088 71.666C1.97707 70.4262 1.86139 69.1726 1.84483 67.916C1.83166 67.4942 1.81441 66.0898 1.81441 66.0898V19.8887C1.81441 19.8887 1.83278 18.5059 1.84494 18.0996C1.86079 16.845 1.97579 15.5933 2.18896 14.3555C2.38732 13.1985 2.76821 12.0775 3.31845 11.0313C3.86041 9.99589 4.57288 9.05172 5.42824 8.23536C6.28265 7.41124 7.26611 6.72121 8.34277 6.19042C9.42504 5.66419 10.5834 5.29747 11.7789 5.10254C13.0679 4.89967 14.3708 4.78999 15.6768 4.77442L17.5521 4.75H231.139L233.037 4.7754C234.331 4.7902 235.622 4.8989 236.899 5.10058C238.107 5.29795 239.277 5.66723 240.372 6.19628C242.529 7.26597 244.284 8.95833 245.391 11.0361C245.932 12.0752 246.307 13.187 246.503 14.334C246.719 15.582 246.84 16.8435 246.864 18.1084C246.87 18.6748 246.87 19.2832 246.87 19.8887C246.887 20.6387 246.887 21.3525 246.887 22.0723V63.9296C246.887 64.6562 246.887 65.3652 246.87 66.08C246.87 66.7304 246.87 67.3262 246.862 67.9394C246.838 69.1818 246.719 70.4207 246.507 71.6464C246.313 72.8085 245.935 73.935 245.385 74.9864C244.837 76.0112 244.125 76.9465 243.274 77.7578C242.425 78.5854 241.443 79.2759 240.366 79.8028C239.274 80.3348 238.105 80.7055 236.899 80.9024C235.614 81.1043 234.316 81.2134 233.014 81.2286C232.405 81.2422 231.768 81.25 231.149 81.25L228.896 81.254L17.5511 81.25Z" fill="black"/>
<path d="M51.4778 43.6014C51.5002 41.932 51.961 40.2953 52.8173 38.8434C53.6736 37.3915 54.8977 36.1716 56.3755 35.2972C55.4367 34.0069 54.1981 32.945 52.7582 32.1959C51.3183 31.4468 49.7167 31.0311 48.0806 30.9819C44.5906 30.6294 41.2072 32.9915 39.4287 32.9915C37.6159 32.9915 34.8777 31.0169 31.9291 31.0753C30.0219 31.1346 28.1631 31.6683 26.534 32.6244C24.9048 33.5805 23.5608 34.9264 22.6329 36.531C18.6134 43.2278 21.6116 53.0699 25.4619 58.4832C27.3883 61.1339 29.6397 64.0948 32.5857 63.9898C35.4684 63.8747 36.5451 62.2208 40.0248 62.2208C43.4723 62.2208 44.4824 63.9898 47.4881 63.923C50.5814 63.8747 52.5304 61.2605 54.3892 58.5847C55.7733 56.696 56.8384 54.6086 57.545 52.3997C55.7478 51.6682 54.2142 50.4439 53.1353 48.8793C52.0564 47.3147 51.4799 45.4791 51.4778 43.6014Z" fill="white"/>
<path d="M45.8006 27.4218C47.4872 25.4734 48.3182 22.969 48.117 20.4405C45.5402 20.701 43.16 21.8861 41.4506 23.7598C40.6148 24.6751 39.9747 25.74 39.5668 26.8935C39.1589 28.047 38.9913 29.2666 39.0735 30.4825C40.3624 30.4953 41.6375 30.2265 42.8027 29.6963C43.9679 29.1661 44.993 28.3884 45.8006 27.4218Z" fill="white"/>
<path d="M87.918 57.2793H78.0804L75.7179 63.9922H71.5511L80.8691 39.1562H85.1983L94.5162 63.9922H90.2784L87.918 57.2793ZM79.0993 54.1816H86.8972L83.0531 43.2871H82.9455L79.0993 54.1816Z" fill="white"/>
<path d="M114.64 54.9395C114.64 60.5664 111.51 64.1816 106.787 64.1816C105.591 64.2419 104.401 63.9766 103.354 63.4164C102.307 62.8561 101.445 62.0234 100.867 61.0136H100.778V69.9824H96.9152V45.8848H100.654V48.8965H100.725C101.33 47.8915 102.206 47.0632 103.261 46.4995C104.316 45.9358 105.51 45.6579 106.716 45.6953C111.492 45.6953 114.64 49.3281 114.64 54.9395ZM110.67 54.9395C110.67 51.2735 108.701 48.8633 105.697 48.8633C102.746 48.8633 100.761 51.3242 100.761 54.9395C100.761 58.5879 102.746 61.0313 105.697 61.0313C108.701 61.0313 110.67 58.6387 110.67 54.9395Z" fill="white"/>
<path d="M135.35 54.9395C135.35 60.5664 132.22 64.1816 127.497 64.1816C126.301 64.2419 125.111 63.9767 124.064 63.4164C123.017 62.8561 122.155 62.0234 121.577 61.0136H121.488V69.9824H117.625V45.8848H121.364V48.8965H121.435C122.04 47.8916 122.916 47.0632 123.971 46.4995C125.026 45.9358 126.22 45.6579 127.426 45.6953C132.202 45.6953 135.35 49.3281 135.35 54.9395ZM131.38 54.9395C131.38 51.2735 129.411 48.8633 126.408 48.8633C123.457 48.8633 121.472 51.3242 121.472 54.9395C121.472 58.5879 123.457 61.0313 126.408 61.0313C129.411 61.0313 131.38 58.6387 131.38 54.9395Z" fill="white"/>
<path d="M149.038 57.0723C149.324 59.5352 151.81 61.1523 155.208 61.1523C158.463 61.1523 160.806 59.5351 160.806 57.3144C160.806 55.3866 159.393 54.2324 156.048 53.4413L152.703 52.6659C147.964 51.5644 145.764 49.4315 145.764 45.9706C145.764 41.6854 149.645 38.7421 155.155 38.7421C160.609 38.7421 164.347 41.6854 164.473 45.9706H160.574C160.341 43.4921 158.212 41.996 155.1 41.996C151.989 41.996 149.86 43.5097 149.86 45.7128C149.86 47.4687 151.22 48.5019 154.546 49.2928L157.39 49.9647C162.685 51.1698 164.885 53.2167 164.885 56.8494C164.885 61.4959 161.039 64.4061 154.922 64.4061C149.198 64.4061 145.334 61.5643 145.084 57.0721L149.038 57.0723Z" fill="white"/>
<path d="M173.221 41.5996V45.8848H176.799V48.8281H173.221V58.8105C173.221 60.3613 173.937 61.084 175.51 61.084C175.935 61.0769 176.359 61.0482 176.781 60.998V63.9238C176.073 64.0509 175.355 64.1085 174.635 64.0956C170.826 64.0956 169.34 62.7187 169.34 59.207V48.8281H166.604V45.8848H169.34V41.5996H173.221Z" fill="white"/>
<path d="M178.871 54.9395C178.871 49.2422 182.358 45.6621 187.795 45.6621C193.251 45.6621 196.722 49.2421 196.722 54.9395C196.722 60.6524 193.269 64.2168 187.795 64.2168C182.324 64.2168 178.871 60.6523 178.871 54.9395ZM192.786 54.9395C192.786 51.0313 190.925 48.7246 187.795 48.7246C184.666 48.7246 182.807 51.0488 182.807 54.9395C182.807 58.8633 184.666 61.1524 187.795 61.1524C190.925 61.1524 192.786 58.8633 192.786 54.9395Z" fill="white"/>
<path d="M199.906 45.8848H203.59V48.9668H203.679C203.928 48.0042 204.514 47.1535 205.339 46.5578C206.163 45.962 207.175 45.6574 208.205 45.6953C208.65 45.6938 209.094 45.7403 209.529 45.834V49.3105C208.967 49.1453 208.381 49.0694 207.793 49.0859C207.232 49.064 206.673 49.1592 206.153 49.365C205.634 49.5708 205.167 49.8822 204.785 50.278C204.403 50.6738 204.114 51.1445 203.938 51.6579C203.763 52.1712 203.705 52.715 203.768 53.2519V63.9922H199.906L199.906 45.8848Z" fill="white"/>
<path d="M227.336 58.6738C226.817 61.9609 223.49 64.2168 219.234 64.2168C213.76 64.2168 210.363 60.6875 210.363 55.0254C210.363 49.3457 213.779 45.6621 219.072 45.6621C224.278 45.6621 227.552 49.1035 227.552 54.5937V55.8672H214.262V56.0918C214.2 56.7582 214.287 57.4295 214.516 58.0612C214.745 58.6929 215.111 59.2705 215.59 59.7555C216.068 60.2406 216.649 60.6222 217.293 60.8748C217.936 61.1274 218.629 61.2453 219.323 61.2207C220.236 61.303 221.152 61.0996 221.935 60.6407C222.718 60.1818 223.326 59.492 223.669 58.6738L227.336 58.6738ZM214.28 53.2695H223.687C223.722 52.6703 223.627 52.0707 223.41 51.5083C223.192 50.9459 222.856 50.4328 222.423 50.0013C221.99 49.5697 221.468 49.2291 220.891 49.0006C220.315 48.7722 219.695 48.6609 219.072 48.6738C218.443 48.6702 217.819 48.7865 217.237 49.016C216.655 49.2455 216.126 49.5836 215.681 50.0109C215.235 50.4381 214.882 50.9461 214.642 51.5054C214.401 52.0647 214.278 52.6643 214.28 53.2695Z" fill="white"/>
<path d="M78.6152 20.462C79.425 20.4061 80.2375 20.5238 80.9942 20.8067C81.751 21.0895 82.4331 21.5305 82.9913 22.0977C83.5495 22.665 83.9699 23.3444 84.2222 24.0869C84.4745 24.8295 84.5525 25.6166 84.4504 26.3917C84.4504 30.2042 82.3091 32.3957 78.6152 32.3957H74.1358V20.462H78.6152ZM76.0619 30.708H78.4001C78.9787 30.7413 79.5577 30.65 80.095 30.4408C80.6324 30.2315 81.1145 29.9096 81.5062 29.4985C81.898 29.0874 82.1895 28.5974 82.3597 28.0641C82.5298 27.5309 82.5742 26.9678 82.4897 26.416C82.5681 25.8663 82.5192 25.3068 82.3464 24.7775C82.1737 24.2481 81.8814 23.7621 81.4905 23.3543C81.0997 22.9464 80.6199 22.6268 80.0856 22.4183C79.5513 22.2098 78.9757 22.1177 78.4001 22.1484H76.0619V30.708Z" fill="white"/>
<path d="M86.6261 27.8887C86.5673 27.2968 86.6376 26.6997 86.8326 26.1356C87.0277 25.5714 87.3431 25.0527 87.7586 24.6128C88.1742 24.1728 88.6807 23.8213 89.2457 23.5807C89.8107 23.3402 90.4217 23.2159 91.0395 23.2159C91.6573 23.2159 92.2683 23.3402 92.8333 23.5807C93.3983 23.8213 93.9048 24.1728 94.3204 24.6128C94.7359 25.0527 95.0513 25.5714 95.2464 26.1356C95.4414 26.6997 95.5117 27.2968 95.4529 27.8887C95.5128 28.4811 95.4433 29.0791 95.2488 29.6441C95.0543 30.2092 94.7391 30.7288 94.3234 31.1696C93.9078 31.6105 93.4009 31.9627 92.8353 32.2038C92.2698 32.4449 91.6581 32.5694 91.0395 32.5694C90.4209 32.5694 89.8092 32.4449 89.2437 32.2038C88.6781 31.9627 88.1712 31.6105 87.7556 31.1696C87.3399 30.7288 87.0247 30.2092 86.8302 29.6441C86.6357 29.0791 86.5661 28.4811 86.6261 27.8887ZM93.5532 27.8887C93.5532 25.9365 92.6419 24.7949 91.0425 24.7949C89.4371 24.7949 88.534 25.9365 88.534 27.8887C88.534 29.8565 89.4372 30.9893 91.0425 30.9893C92.6419 30.9892 93.5532 29.8486 93.5532 27.8887Z" fill="white"/>
<path d="M107.186 32.3955H105.27L103.336 25.7627H103.19L101.264 32.3955H99.366L96.7864 23.3896H98.6597L100.336 30.2616H100.474L102.398 23.3896H104.17L106.094 30.2616H106.24L107.909 23.3896H109.756L107.186 32.3955Z" fill="white"/>
<path d="M111.925 23.3896H113.703V24.8203H113.841C114.075 24.3064 114.47 23.8757 114.971 23.5881C115.471 23.3005 116.053 23.1703 116.634 23.2158C117.089 23.1828 117.547 23.2489 117.972 23.4091C118.397 23.5693 118.779 23.8195 119.09 24.1412C119.402 24.4629 119.633 24.8478 119.769 25.2674C119.904 25.6871 119.94 26.1307 119.873 26.5654V32.3954H118.026V27.0117C118.026 25.5645 117.373 24.8447 116.007 24.8447C115.698 24.8309 115.389 24.8815 115.102 24.9932C114.815 25.1048 114.557 25.2749 114.344 25.4916C114.132 25.7084 113.971 25.9668 113.872 26.249C113.774 26.5313 113.739 26.8308 113.772 27.1269V32.3955H111.925L111.925 23.3896Z" fill="white"/>
<path d="M122.816 19.874H124.663V32.3955H122.816V19.874Z" fill="white"/>
<path d="M127.231 27.8887C127.172 27.2968 127.242 26.6996 127.437 26.1355C127.632 25.5713 127.948 25.0526 128.363 24.6126C128.779 24.1727 129.286 23.8211 129.851 23.5806C130.416 23.34 131.027 23.2157 131.645 23.2157C132.262 23.2157 132.873 23.34 133.438 23.5806C134.003 23.8211 134.51 24.1727 134.926 24.6126C135.341 25.0526 135.657 25.5713 135.852 26.1355C136.047 26.6996 136.117 27.2968 136.058 27.8887C136.118 28.4811 136.049 29.0791 135.854 29.6442C135.66 30.2092 135.344 30.7288 134.929 31.1696C134.513 31.6105 134.006 31.9627 133.44 32.2038C132.875 32.4448 132.263 32.5694 131.645 32.5694C131.026 32.5694 130.414 32.4448 129.849 32.2038C129.283 31.9627 128.776 31.6105 128.36 31.1696C127.945 30.7288 127.629 30.2092 127.435 29.6442C127.24 29.0791 127.171 28.4811 127.231 27.8887ZM134.158 27.8887C134.158 25.9365 133.246 24.7949 131.647 24.7949C130.042 24.7949 129.139 25.9365 129.139 27.8887C129.139 29.8565 130.042 30.9893 131.647 30.9893C133.246 30.9892 134.158 29.8486 134.158 27.8887Z" fill="white"/>
<path d="M138.003 29.8486C138.003 28.2275 139.257 27.293 141.484 27.1602L144.019 27.0195V26.2422C144.019 25.291 143.365 24.7539 142.103 24.7539C141.072 24.7539 140.357 25.1182 140.152 25.7549H138.364C138.553 24.208 140.065 23.2158 142.188 23.2158C144.534 23.2158 145.857 24.3398 145.857 26.2422V32.3955H144.079V31.1299H143.933C143.637 31.5839 143.22 31.954 142.726 32.2024C142.233 32.4508 141.679 32.5687 141.122 32.5439C140.729 32.5832 140.332 32.5429 139.957 32.4255C139.581 32.3081 139.235 32.1162 138.941 31.8623C138.647 31.6084 138.412 31.298 138.25 30.9511C138.089 30.6043 138.004 30.2287 138.003 29.8486ZM144.019 29.0791V28.3262L141.733 28.4668C140.444 28.5498 139.86 28.9717 139.86 29.7656C139.86 30.5762 140.591 31.0478 141.595 31.0478C141.89 31.0765 142.187 31.0479 142.47 30.9637C142.752 30.8795 143.015 30.7415 143.241 30.5578C143.467 30.3741 143.652 30.1486 143.786 29.8945C143.919 29.6405 143.999 29.3632 144.019 29.0791Z" fill="white"/>
<path d="M148.285 27.8887C148.285 25.043 149.805 23.2402 152.17 23.2402C152.754 23.2143 153.335 23.3491 153.843 23.6289C154.351 23.9087 154.766 24.3219 155.039 24.8202H155.177V19.874H157.024V32.3955H155.255V30.9726H155.108C154.814 31.4676 154.385 31.8757 153.867 32.1526C153.349 32.4296 152.762 32.5649 152.17 32.5439C149.789 32.544 148.285 30.7412 148.285 27.8887ZM150.193 27.8887C150.193 29.7988 151.128 30.9483 152.693 30.9483C154.25 30.9483 155.212 29.7823 155.212 27.8965C155.212 26.0195 154.24 24.8369 152.693 24.8369C151.138 24.8369 150.193 25.9941 150.193 27.8887Z" fill="white"/>
<path d="M164.666 27.8887C164.607 27.2968 164.677 26.6997 164.872 26.1356C165.067 25.5714 165.383 25.0527 165.798 24.6128C166.214 24.1728 166.72 23.8213 167.285 23.5807C167.85 23.3402 168.461 23.2159 169.079 23.2159C169.697 23.2159 170.308 23.3402 170.873 23.5807C171.438 23.8213 171.945 24.1728 172.36 24.6128C172.776 25.0527 173.091 25.5714 173.286 26.1356C173.481 26.6997 173.552 27.2968 173.493 27.8887C173.553 28.4811 173.483 29.0791 173.289 29.6441C173.094 30.2092 172.779 30.7288 172.363 31.1696C171.948 31.6105 171.441 31.9627 170.875 32.2038C170.31 32.4449 169.698 32.5694 169.079 32.5694C168.461 32.5694 167.849 32.4449 167.283 32.2038C166.718 31.9627 166.211 31.6105 165.795 31.1696C165.38 30.7288 165.064 30.2092 164.87 29.6441C164.675 29.0791 164.606 28.4811 164.666 27.8887ZM171.593 27.8887C171.593 25.9365 170.682 24.7949 169.082 24.7949C167.477 24.7949 166.574 25.9365 166.574 27.8887C166.574 29.8565 167.477 30.9893 169.082 30.9893C170.682 30.9892 171.593 29.8486 171.593 27.8887Z" fill="white"/>
<path d="M175.971 23.3896H177.749V24.8203H177.887C178.121 24.3064 178.516 23.8757 179.016 23.5881C179.517 23.3005 180.098 23.1703 180.68 23.2158C181.135 23.1828 181.592 23.2489 182.017 23.4091C182.443 23.5693 182.825 23.8195 183.136 24.1412C183.447 24.4629 183.679 24.8478 183.814 25.2674C183.95 25.6871 183.986 26.1307 183.919 26.5654V32.3954H182.072V27.0117C182.072 25.5645 181.418 24.8447 180.052 24.8447C179.743 24.8309 179.435 24.8815 179.148 24.9932C178.861 25.1048 178.602 25.2749 178.39 25.4916C178.178 25.7084 178.017 25.9668 177.918 26.249C177.819 26.5313 177.785 26.8308 177.818 27.1269V32.3955H175.971V23.3896Z" fill="white"/>
<path d="M194.355 21.1475V23.4307H196.383V24.9277H194.355V29.5586C194.355 30.502 194.759 30.915 195.678 30.915C195.914 30.9143 196.149 30.9006 196.383 30.874V32.3545C196.051 32.4116 195.715 32.442 195.378 32.4453C193.324 32.4453 192.506 31.75 192.506 30.0137V24.9277H191.02V23.4306H192.506V21.1475H194.355Z" fill="white"/>
<path d="M198.906 19.874H200.736V24.8369H200.882C201.128 24.3183 201.534 23.8851 202.044 23.5964C202.555 23.3077 203.146 23.1775 203.736 23.2236C204.189 23.1999 204.642 23.2727 205.062 23.4368C205.483 23.6008 205.86 23.8522 206.168 24.1729C206.476 24.4935 206.706 24.8756 206.843 25.2919C206.98 25.7082 207.019 26.1484 206.959 26.581V32.3955H205.11V27.0195C205.11 25.581 204.414 24.8525 203.109 24.8525C202.791 24.8274 202.472 24.8694 202.173 24.9755C201.875 25.0816 201.603 25.2493 201.379 25.4668C201.155 25.6843 200.982 25.9463 200.874 26.2346C200.766 26.5228 200.724 26.8304 200.753 27.1357V32.3955H198.906L198.906 19.874Z" fill="white"/>
<path d="M217.728 29.9639C217.477 30.7869 216.934 31.4989 216.192 31.9752C215.451 32.4515 214.559 32.6618 213.673 32.5693C213.056 32.585 212.444 32.4713 211.877 32.2363C211.311 32.0012 210.805 31.6504 210.393 31.2081C209.982 30.7658 209.676 30.2427 209.495 29.6751C209.315 29.1074 209.266 28.5089 209.35 27.9209C209.268 27.3311 209.318 26.7313 209.498 26.1619C209.678 25.5926 209.983 25.067 210.392 24.6209C210.801 24.1747 211.305 23.8184 211.87 23.576C212.434 23.3336 213.047 23.2107 213.665 23.2158C216.269 23.2158 217.84 24.9278 217.84 27.7558V28.376H211.231V28.4756C211.202 28.8061 211.246 29.1388 211.358 29.4523C211.471 29.7657 211.65 30.0532 211.885 30.2961C212.119 30.539 212.404 30.732 212.721 30.8628C213.037 30.9936 213.379 31.0593 213.724 31.0556C214.166 31.1066 214.613 31.0301 215.01 30.8357C215.406 30.6413 215.733 30.3378 215.95 29.9638L217.728 29.9639ZM211.231 27.0615H215.958C215.982 26.7593 215.939 26.4557 215.833 26.1702C215.727 25.8848 215.56 25.6238 215.343 25.4041C215.126 25.1844 214.864 25.0108 214.573 24.8944C214.282 24.7781 213.97 24.7216 213.655 24.7285C213.335 24.7247 213.018 24.7824 212.722 24.8983C212.426 25.0142 212.158 25.1859 211.932 25.4033C211.706 25.6207 211.528 25.8795 211.407 26.1642C211.287 26.449 211.227 26.7541 211.231 27.0615Z" fill="white"/>
</g>
<defs>
<clipPath id="clip0_1_59">
<rect width="248.701" height="80" fill="white" transform="translate(0 3)"/>
</clipPath>
</defs>
</svg>
