<svg width="247" height="87" viewBox="0 0 247 87" fill="none" xmlns="http://www.w3.org/2000/svg">
<g clip-path="url(#clip0_1_59)">
<g clip-path="url(#clip1_1_59)">
<path fill-rule="evenodd" clip-rule="evenodd" d="M12.0363 3.75H235C239.126 3.75 240.633 4.1655 242.145 4.99702C243.6 5.79763 244.741 6.97248 245.52 8.46947C246.329 10.0243 246.732 11.5742 246.732 15.8194V70.1806C246.732 74.4258 246.329 75.9757 245.52 77.5305C244.741 79.0275 243.6 80.2024 242.145 81.003C240.633 81.8345 239.126 82.25 235 82.25H12.0363C7.90952 82.25 6.4028 81.8345 4.89137 81.003C3.43614 80.2024 2.29406 79.0275 1.51578 77.5305C0.70746 75.9757 0.303551 74.4258 0.303551 70.1806V15.8194C0.303551 11.5742 0.70746 10.0243 1.51578 8.46947C2.29406 6.97248 3.43614 5.79763 4.89137 4.99702C6.4028 4.1655 7.90952 3.75 12.0363 3.75Z" fill="black" stroke="#A6A6A6" stroke-width="1.5"/>
<path d="M32.7246 21H48.0811C52.8477 21 54.5762 21.5105 56.3188 22.4692C58.0613 23.4279 59.429 24.8348 60.3609 26.6273C61.2929 28.4199 61.7891 30.198 61.7891 35.1014V50.8986C61.7891 55.802 61.2929 57.5801 60.3609 59.3727C59.429 61.1652 58.0613 62.5721 56.3188 63.5308C54.5762 64.4895 52.8477 65 48.0811 65H32.7246C27.958 65 26.2295 64.4895 24.4869 63.5308C22.7444 62.5721 21.3767 61.1652 20.4448 59.3727C19.5128 57.5801 19.0165 55.802 19.0165 50.8986V35.1014C19.0165 30.198 19.5128 28.4199 20.4448 26.6273C21.3767 24.8348 22.7444 23.4279 24.4869 22.4692C26.2295 21.5105 27.958 21 32.7246 21Z" fill="white"/>
<mask id="mask0_1_59" style="mask-type:alpha" maskUnits="userSpaceOnUse" x="19" y="21" width="43" height="44">
<path d="M32.7246 21H48.0811C52.8477 21 54.5762 21.5105 56.3188 22.4692C58.0613 23.4279 59.429 24.8348 60.3609 26.6273C61.2929 28.4199 61.7891 30.198 61.7891 35.1014V50.8986C61.7891 55.802 61.2929 57.5801 60.3609 59.3727C59.429 61.1652 58.0613 62.5721 56.3188 63.5308C54.5762 64.4895 52.8477 65 48.0811 65H32.7246C27.958 65 26.2295 64.4895 24.4869 63.5308C22.7444 62.5721 21.3767 61.1652 20.4448 59.3727C19.5128 57.5801 19.0165 55.802 19.0165 50.8986V35.1014C19.0165 30.198 19.5128 28.4199 20.4448 26.6273C21.3767 24.8348 22.7444 23.4279 24.4869 22.4692C26.2295 21.5105 27.958 21 32.7246 21Z" fill="#FF5C69"/>
</mask>
<g mask="url(#mask0_1_59)">
<path fill-rule="evenodd" clip-rule="evenodd" d="M49.6379 70.9231H17.4924C15.1544 70.9231 13.2587 68.9704 13.2587 66.5615V57.6992L25.0624 45.4772L49.6379 70.9231Z" fill="#00E691"/>
<path fill-rule="evenodd" clip-rule="evenodd" d="M56.9446 40.9557L31.9626 15.0769H63.3124C65.6512 15.0769 67.547 17.031 67.547 19.4417V29.9722L56.9446 40.9557Z" fill="#00CCFF"/>
<path fill-rule="evenodd" clip-rule="evenodd" d="M63.3046 70.875H54.6372L43.4656 59.3359L67.5469 34.4619V66.5143C67.5469 66.9966 67.471 67.4602 67.3306 67.894C66.7688 69.6261 65.1783 70.875 63.3046 70.875Z" fill="#8F61FF"/>
<path fill-rule="evenodd" clip-rule="evenodd" d="M13.2587 52.5482V19.4347C13.2587 18.9906 13.3235 18.5618 13.4434 18.1583C13.9742 16.3742 15.5874 15.0769 17.4954 15.0769H27.5129L38.5091 26.4445L13.2587 52.5482Z" fill="#FF5C69"/>
<path d="M39.3083 48.0785V35.3846H41.4973V48.0785H39.3083Z" fill="#00E08A"/>
<path fill-rule="evenodd" clip-rule="evenodd" d="M33.228 43.3711L34.7751 41.7796L40.4028 47.5688L46.0305 41.7796L47.5777 43.3711L40.4028 50.7518L33.228 43.3711Z" fill="#0FCFFF"/>
</g>
<path d="M83.8812 26.984C82.0167 26.984 80.8463 28.356 80.8463 30.792C80.8463 33.256 81.9758 34.586 83.7995 34.586C84.7386 34.586 85.419 34.208 86.0042 33.536V31.828H83.6362V30.12H87.7463V34.264C86.7255 35.636 85.3918 36.322 83.7995 36.322C80.8735 36.322 78.9954 34.264 78.9954 30.792C78.9954 27.32 80.9143 25.248 83.8812 25.248C85.5823 25.248 86.9025 26.102 87.6646 27.446L86.2492 28.482C85.7184 27.572 84.793 26.984 83.8812 26.984ZM91.3914 31.492V34.432H96.4949V36.126H89.5949V25.444H96.318V27.152H91.3914V29.798H96.0458V31.492H91.3914ZM102.307 36.126H100.511V27.18H97.408V25.444H105.397V27.18H102.307V36.126ZM112.523 25.444V36.126H110.727V25.444H112.523ZM118.748 36.126H116.951V27.18H113.848V25.444H121.837V27.18H118.748V36.126ZM131.685 36.322C128.732 36.322 126.868 34.264 126.868 30.792C126.868 27.306 128.732 25.248 131.685 25.248C134.639 25.248 136.489 27.306 136.489 30.792C136.489 34.264 134.639 36.322 131.685 36.322ZM131.685 34.586C133.495 34.586 134.652 33.2 134.652 30.792C134.652 28.384 133.495 26.984 131.685 26.984C129.862 26.984 128.719 28.384 128.719 30.792C128.719 33.2 129.862 34.586 131.685 34.586ZM139.941 36.126H138.145V25.444H139.86L144.678 32.752H144.746V25.444H146.542V36.126H144.895L140.023 28.818H139.941V36.126Z" fill="white"/>
<path d="M82.4055 63.14H79.3842V42.056H82.3511L89.5641 53.872H89.7274L96.9404 42.056H99.88V63.14H96.8587V48.02H96.6954L90.6528 57.876H88.6386L82.5688 48.048H82.4055V63.14ZM107.428 43.092C107.428 44.296 106.666 45.024 105.496 45.024C104.353 45.024 103.645 44.296 103.645 43.092C103.645 41.888 104.353 41.132 105.496 41.132C106.666 41.132 107.428 41.888 107.428 43.092ZM107.02 47.74V63.14H104.053V47.74H107.02ZM133.617 63.14H130.351L128.064 56.672H120.688L118.402 63.14H115.135L122.784 42.056H125.968L133.617 63.14ZM124.281 46.452L121.722 53.676H127.003L124.444 46.452H124.281ZM138.738 69.104H135.771V47.74H138.738V49.84H138.874C139.908 48.3 141.542 47.348 143.338 47.348C147.013 47.348 149.571 50.54 149.571 55.188C149.571 60.144 147.013 63.532 143.338 63.532C141.433 63.532 139.881 62.636 138.874 61.068H138.738V69.104ZM138.629 55.44C138.629 58.52 140.208 60.592 142.467 60.592C144.862 60.592 146.55 58.52 146.55 55.44C146.55 52.416 144.889 50.288 142.576 50.288C140.262 50.288 138.629 52.416 138.629 55.44ZM155.51 69.104H152.543V47.74H155.51V49.84H155.646C156.68 48.3 158.313 47.348 160.11 47.348C163.784 47.348 166.343 50.54 166.343 55.188C166.343 60.144 163.784 63.532 160.11 63.532C158.204 63.532 156.653 62.636 155.646 61.068H155.51V69.104ZM155.401 55.44C155.401 58.52 156.979 60.592 159.239 60.592C161.634 60.592 163.321 58.52 163.321 55.44C163.321 52.416 161.661 50.288 159.348 50.288C157.034 50.288 155.401 52.416 155.401 55.44ZM178.203 63.14H175.182V42.056H178.149L185.362 53.872H185.525L192.738 42.056H195.678V63.14H192.657V48.02H192.493L186.451 57.876H184.437L178.367 48.048H178.203V63.14ZM203.553 63.532C200.722 63.532 198.844 61.88 198.844 59.192C198.844 55.86 201.512 54.096 206.166 54.096H208.071V53.116C208.071 51.212 206.874 50.036 205.023 50.036C203.689 50.036 202.519 50.736 201.539 51.688L199.688 49.896C201.103 48.328 202.954 47.348 205.268 47.348C208.806 47.348 211.038 49.532 211.038 52.892V63.14H208.071V61.096H207.908C207.146 62.608 205.377 63.532 203.553 63.532ZM204.261 60.872C205.867 60.872 208.071 59.864 208.071 57.484V56.756H206.629C203.417 56.756 201.893 57.456 201.893 58.996C201.893 60.116 202.791 60.872 204.261 60.872ZM214.543 60.256V42.056H217.509V59.36C217.509 60.088 217.863 60.452 218.571 60.452H219.306V63.336H217.782C215.631 63.336 214.543 62.272 214.543 60.256ZM221.719 60.256V42.056H224.686V59.36C224.686 60.088 225.039 60.452 225.747 60.452H226.482V63.336H224.958C222.807 63.336 221.719 62.272 221.719 60.256Z" fill="white"/>
</g>
</g>
<defs>
<clipPath id="clip0_1_59">
<rect width="247" height="87" fill="white"/>
</clipPath>
<clipPath id="clip1_1_59">
<rect width="247.887" height="80" fill="white" transform="translate(-0.425529 3)"/>
</clipPath>
</defs>
</svg>
