<svg width="255" height="80" viewBox="0 0 255 80" fill="none" xmlns="http://www.w3.org/2000/svg">
<path fill-rule="evenodd" clip-rule="evenodd" d="M12.8194 0.75H242.181C246.426 0.75 247.976 1.1655 249.531 1.99702C251.028 2.79763 252.202 3.97248 253.003 5.46947C253.835 7.02428 254.25 8.57423 254.25 12.8194V67.1806C254.25 71.4258 253.835 72.9757 253.003 74.5305C252.202 76.0275 251.028 77.2024 249.531 78.003C247.976 78.8345 246.426 79.25 242.181 79.25H12.8194C8.57423 79.25 7.02428 78.8345 5.46947 78.003C3.97248 77.2024 2.79763 76.0275 1.99702 74.5305C1.1655 72.9757 0.75 71.4258 0.75 67.1806V12.8194C0.75 8.57423 1.1655 7.02428 1.99702 5.46947C2.79763 3.97248 3.97248 2.79763 5.46947 1.99702C7.02428 1.1655 8.57423 0.75 12.8194 0.75Z" fill="black" stroke="#A6A6A6" stroke-width="1.5"/>
<path d="M34.1014 18H49.8986C54.802 18 56.5801 18.5105 58.3727 19.4692C60.1652 20.4279 61.5721 21.8348 62.5308 23.6273C63.4895 25.4199 64 27.198 64 32.1014V47.8986C64 52.802 63.4895 54.5801 62.5308 56.3727C61.5721 58.1652 60.1652 59.5721 58.3727 60.5308C56.5801 61.4895 54.802 62 49.8986 62H34.1014C29.198 62 27.4199 61.4895 25.6273 60.5308C23.8348 59.5721 22.4279 58.1652 21.4692 56.3727C20.5105 54.5801 20 52.802 20 47.8986V32.1014C20 27.198 20.5105 25.4199 21.4692 23.6273C22.4279 21.8348 23.8348 20.4279 25.6273 19.4692C27.4199 18.5105 29.198 18 34.1014 18Z" fill="white"/>
<mask id="mask0_17227_33592" style="mask-type:alpha" maskUnits="userSpaceOnUse" x="20" y="18" width="44" height="44">
<path d="M34.1014 18H49.8986C54.802 18 56.5801 18.5105 58.3727 19.4692C60.1652 20.4279 61.5721 21.8348 62.5308 23.6273C63.4895 25.4199 64 27.198 64 32.1014V47.8986C64 52.802 63.4895 54.5801 62.5308 56.3727C61.5721 58.1652 60.1652 59.5721 58.3727 60.5308C56.5801 61.4895 54.802 62 49.8986 62H34.1014C29.198 62 27.4199 61.4895 25.6273 60.5308C23.8348 59.5721 22.4279 58.1652 21.4692 56.3727C20.5105 54.5801 20 52.802 20 47.8986V32.1014C20 27.198 20.5105 25.4199 21.4692 23.6273C22.4279 21.8348 23.8348 20.4279 25.6273 19.4692C27.4199 18.5105 29.198 18 34.1014 18Z" fill="#FF5C69"/>
</mask>
<g mask="url(#mask0_17227_33592)">
<path fill-rule="evenodd" clip-rule="evenodd" d="M51.5001 67.9231H18.4321C16.027 67.9231 14.0769 65.9704 14.0769 63.5615V54.6992L26.2193 42.4772L51.5001 67.9231Z" fill="#00E691"/>
<path fill-rule="evenodd" clip-rule="evenodd" d="M59.0164 37.9557L33.3176 12.0769H65.567C67.9729 12.0769 69.9231 14.031 69.9231 16.4417V26.9722L59.0164 37.9557Z" fill="#00CCFF"/>
<path fill-rule="evenodd" clip-rule="evenodd" d="M65.559 67.875H56.6428L45.1506 56.3359L69.923 31.4619V63.5143C69.923 63.9966 69.8449 64.4602 69.7005 64.894C69.1226 66.6261 67.4864 67.875 65.559 67.875Z" fill="#8F61FF"/>
<path fill-rule="evenodd" clip-rule="evenodd" d="M14.0769 49.5482V16.4347C14.0769 15.9906 14.1436 15.5618 14.2669 15.1583C14.8129 13.3742 16.4724 12.0769 18.4352 12.0769H28.7402L40.0519 23.4445L14.0769 49.5482Z" fill="#FF5C69"/>
<path d="M40.8741 45.0785V32.3846H43.1259V45.0785H40.8741Z" fill="#00E08A"/>
<path fill-rule="evenodd" clip-rule="evenodd" d="M34.6193 40.3711L36.2108 38.7796L42 44.5688L47.7892 38.7796L49.3807 40.3711L42 47.7518L34.6193 40.3711Z" fill="#0FCFFF"/>
</g>
<path d="M86.726 23.984C84.808 23.984 83.604 25.356 83.604 27.792C83.604 30.256 84.766 31.586 86.642 31.586C87.608 31.586 88.308 31.208 88.91 30.536V28.828H86.474V27.12H90.702V31.264C89.652 32.636 88.28 33.322 86.642 33.322C83.632 33.322 81.7 31.264 81.7 27.792C81.7 24.32 83.674 22.248 86.726 22.248C88.476 22.248 89.834 23.102 90.618 24.446L89.162 25.482C88.616 24.572 87.664 23.984 86.726 23.984ZM94.4517 28.492V31.432H99.7017V33.126H92.6037V22.444H99.5197V24.152H94.4517V26.798H99.2397V28.492H94.4517ZM105.681 33.126H103.833V24.18H100.641V22.444H108.859V24.18H105.681V33.126ZM116.19 22.444V33.126H114.342V22.444H116.19ZM122.593 33.126H120.745V24.18H117.553V22.444H125.771V24.18H122.593V33.126ZM135.902 33.322C132.864 33.322 130.946 31.264 130.946 27.792C130.946 24.306 132.864 22.248 135.902 22.248C138.94 22.248 140.844 24.306 140.844 27.792C140.844 31.264 138.94 33.322 135.902 33.322ZM135.902 31.586C137.764 31.586 138.954 30.2 138.954 27.792C138.954 25.384 137.764 23.984 135.902 23.984C134.026 23.984 132.85 25.384 132.85 27.792C132.85 30.2 134.026 31.586 135.902 31.586ZM144.395 33.126H142.547V22.444H144.311L149.267 29.752H149.337V22.444H151.185V33.126H149.491L144.479 25.818H144.395V33.126Z" fill="white"/>
<path d="M85.208 60.14H82.1V39.056H85.152L92.572 50.872H92.74L100.16 39.056H103.184V60.14H100.076V45.02H99.908L93.692 54.876H91.62L85.376 45.048H85.208V60.14ZM110.949 40.092C110.949 41.296 110.165 42.024 108.961 42.024C107.785 42.024 107.057 41.296 107.057 40.092C107.057 38.888 107.785 38.132 108.961 38.132C110.165 38.132 110.949 38.888 110.949 40.092ZM110.529 44.74V60.14H107.477V44.74H110.529ZM137.889 60.14H134.529L132.177 53.672H124.589L122.237 60.14H118.877L126.745 39.056H130.021L137.889 60.14ZM128.285 43.452L125.653 50.676H131.085L128.453 43.452H128.285ZM143.157 66.104H140.105V44.74H143.157V46.84H143.297C144.361 45.3 146.041 44.348 147.889 44.348C151.669 44.348 154.301 47.54 154.301 52.188C154.301 57.144 151.669 60.532 147.889 60.532C145.929 60.532 144.333 59.636 143.297 58.068H143.157V66.104ZM143.045 52.44C143.045 55.52 144.669 57.592 146.993 57.592C149.457 57.592 151.193 55.52 151.193 52.44C151.193 49.416 149.485 47.288 147.105 47.288C144.725 47.288 143.045 49.416 143.045 52.44ZM160.41 66.104H157.358V44.74H160.41V46.84H160.55C161.614 45.3 163.294 44.348 165.142 44.348C168.922 44.348 171.554 47.54 171.554 52.188C171.554 57.144 168.922 60.532 165.142 60.532C163.182 60.532 161.586 59.636 160.55 58.068H160.41V66.104ZM160.298 52.44C160.298 55.52 161.922 57.592 164.246 57.592C166.71 57.592 168.446 55.52 168.446 52.44C168.446 49.416 166.738 47.288 164.358 47.288C161.978 47.288 160.298 49.416 160.298 52.44ZM183.755 60.14H180.647V39.056H183.699L191.119 50.872H191.287L198.707 39.056H201.731V60.14H198.623V45.02H198.455L192.239 54.876H190.167L183.923 45.048H183.755V60.14ZM209.832 60.532C206.92 60.532 204.988 58.88 204.988 56.192C204.988 52.86 207.732 51.096 212.52 51.096H214.48V50.116C214.48 48.212 213.248 47.036 211.344 47.036C209.972 47.036 208.768 47.736 207.76 48.688L205.856 46.896C207.312 45.328 209.216 44.348 211.596 44.348C215.236 44.348 217.532 46.532 217.532 49.892V60.14H214.48V58.096H214.312C213.528 59.608 211.708 60.532 209.832 60.532ZM210.56 57.872C212.212 57.872 214.48 56.864 214.48 54.484V53.756H212.996C209.692 53.756 208.124 54.456 208.124 55.996C208.124 57.116 209.048 57.872 210.56 57.872ZM221.137 57.256V39.056H224.189V56.36C224.189 57.088 224.553 57.452 225.281 57.452H226.037V60.336H224.469C222.257 60.336 221.137 59.272 221.137 57.256ZM228.519 57.256V39.056H231.571V56.36C231.571 57.088 231.935 57.452 232.663 57.452H233.419V60.336H231.851C229.639 60.336 228.519 59.272 228.519 57.256Z" fill="white"/>
</svg>
