<svg width="271" height="87" viewBox="0 0 271 87" fill="none" xmlns="http://www.w3.org/2000/svg">
<g clip-path="url(#clip0_1_59)">
<g clip-path="url(#clip1_1_59)">
<mask id="mask0_1_59" style="mask-type:luminance" maskUnits="userSpaceOnUse" x="-72" y="-39" width="415" height="164">
<path d="M342.803 124.09H-71.8471V-38.09H342.803V124.09Z" fill="white"/>
</mask>
<g mask="url(#mask0_1_59)">
<path d="M260.817 83.6332H9.96438C4.37045 83.6332 0.000190735 79.0398 0.000190735 73.5632V12.7898C0.000190735 7.13649 4.54526 2.71982 9.96438 2.71982H260.817C266.411 2.71982 270.782 7.31316 270.782 12.7898V73.3865C270.956 79.0398 266.411 83.6332 260.817 83.6332Z" fill="black"/>
<path d="M260.817 2.36684H9.96438C4.37045 2.36684 0.000190735 6.96017 0.000190735 12.4368V73.2102C0.000190735 78.8635 4.54526 83.2802 9.96438 83.2802H260.817C266.411 83.2802 270.782 78.6868 270.782 73.2102V12.4368C270.956 6.96017 266.411 2.36684 260.817 2.36684ZM260.817 4.1335C265.537 4.1335 269.208 8.02017 269.208 12.6135V73.3868C269.208 78.1568 265.363 81.8668 260.817 81.8668H9.96438C5.2445 81.8668 1.57347 77.9802 1.57347 73.3868V12.6135C1.57347 7.8435 5.41931 4.1335 9.96438 4.1335H260.817Z" fill="#A6A6A6"/>
<path d="M95.1293 23.2897C95.1293 25.0563 94.6048 26.293 93.556 27.353C92.5071 28.5897 90.9338 29.1197 89.1857 29.1197C87.4376 29.1197 86.0391 28.5897 84.8155 27.353C83.5918 26.1163 83.0674 24.703 83.0674 22.7597C83.0674 20.993 83.5918 19.403 84.8155 18.1663C86.0391 16.9297 87.4376 16.3997 89.1857 16.3997C90.0598 16.3997 90.9338 16.5763 91.6331 16.9297C92.3323 17.283 93.0316 17.6363 93.556 18.343L92.5071 19.403C91.6331 18.5197 90.5842 17.9897 89.1857 17.9897C87.962 17.9897 86.7384 18.5197 85.8643 19.403C84.9903 20.1097 84.6406 21.3463 84.6406 22.7597C84.6406 24.173 85.1651 25.4097 86.0391 26.293C86.9132 27.1763 87.962 27.5297 89.1857 27.5297C90.5842 27.5297 91.6331 26.9997 92.5071 26.1163C93.0316 25.5863 93.3812 24.703 93.556 23.643H89.1857V22.2297H95.1293C95.1293 22.583 95.1293 22.9363 95.1293 23.2897Z" fill="white"/>
<path d="M95.1293 23.2897C95.1293 25.0563 94.6048 26.293 93.556 27.353C92.5071 28.5897 90.9338 29.1197 89.1857 29.1197C87.4376 29.1197 86.0391 28.5897 84.8155 27.353C83.5918 26.1163 83.0674 24.703 83.0674 22.7597C83.0674 20.993 83.5918 19.403 84.8155 18.1663C86.0391 16.9297 87.4376 16.3997 89.1857 16.3997C90.0598 16.3997 90.9338 16.5763 91.6331 16.9297C92.3323 17.283 93.0316 17.6363 93.556 18.343L92.5071 19.403C91.6331 18.5197 90.5842 17.9897 89.1857 17.9897C87.962 17.9897 86.7384 18.5197 85.8643 19.403C84.9903 20.1097 84.6406 21.3463 84.6406 22.7597C84.6406 24.173 85.1651 25.4097 86.0391 26.293C86.9132 27.1763 87.962 27.5297 89.1857 27.5297C90.5842 27.5297 91.6331 26.9997 92.5071 26.1163C93.0316 25.5863 93.3812 24.703 93.556 23.643H89.1857V22.2297H95.1293C95.1293 22.583 95.1293 22.9363 95.1293 23.2897Z" stroke="white" stroke-width="0.3556" stroke-miterlimit="13.3333"/>
<path d="M104.41 18.1559H98.9914V22.0426H103.886V23.4559H98.9914V27.3426H104.41V28.7559H97.4181V16.5659H104.41V18.1559Z" fill="white"/>
<path d="M104.41 18.1559H98.9914V22.0426H103.886V23.4559H98.9914V27.3426H104.41V28.7559H97.4181V16.5659H104.41V18.1559Z" stroke="white" stroke-width="0.3556" stroke-miterlimit="13.3333"/>
<path d="M110.968 28.8667H109.394V18.2667H106.073V16.8533H114.289V18.09H110.968V28.8667Z" fill="white"/>
<path d="M110.968 28.8667H109.394V18.2667H106.073V16.8533H114.289V18.09H110.968V28.8667Z" stroke="white" stroke-width="0.3556" stroke-miterlimit="13.3333"/>
<path d="M120.27 16.6767H121.843V28.8667H120.27V16.6767Z" fill="white" stroke="white" stroke-width="0.3556" stroke-miterlimit="13.3333"/>
<path d="M128.71 28.8667H127.137V18.2667H123.815V16.8533H132.032V18.09H128.71V28.8667Z" fill="white"/>
<path d="M128.71 28.8667H127.137V18.2667H123.815V16.8533H132.032V18.09H128.71V28.8667Z" stroke="white" stroke-width="0.3556" stroke-miterlimit="13.3333"/>
<path d="M139.987 26.2559C140.861 27.1392 141.91 27.6692 143.308 27.6692C144.707 27.6692 145.756 27.1392 146.63 26.2559C147.504 25.3726 148.028 24.1359 148.028 22.7225C148.028 21.3092 147.504 20.0726 146.63 19.1892C145.756 18.3059 144.532 17.7759 143.308 17.7759C142.085 17.7759 140.861 18.3059 139.987 19.1892C139.113 20.0726 138.589 21.3092 138.589 22.7225C138.589 24.1359 139.113 25.3726 139.987 26.2559ZM147.679 27.3159C146.455 28.5526 145.057 29.0826 143.308 29.0826C141.56 29.0826 140.162 28.3759 138.938 27.3159C137.714 26.0792 137.19 24.6659 137.19 22.7225C137.19 20.7792 137.714 19.3659 138.938 18.1292C140.162 16.8925 141.56 16.3625 143.308 16.3625C145.057 16.3625 146.455 17.0692 147.679 18.1292C148.902 19.3659 149.427 20.7792 149.427 22.5459C149.427 24.4892 148.902 26.0792 147.679 27.3159Z" fill="white"/>
<path d="M139.987 26.2559C140.861 27.1392 141.91 27.6692 143.308 27.6692C144.707 27.6692 145.756 27.1392 146.63 26.2559C147.504 25.3726 148.028 24.1359 148.028 22.7225C148.028 21.3092 147.504 20.0726 146.63 19.1892C145.756 18.3059 144.532 17.7759 143.308 17.7759C142.085 17.7759 140.861 18.3059 139.987 19.1892C139.113 20.0726 138.589 21.3092 138.589 22.7225C138.589 24.1359 139.113 25.3726 139.987 26.2559ZM147.679 27.3159C146.455 28.5526 145.057 29.0826 143.308 29.0826C141.56 29.0826 140.162 28.3759 138.938 27.3159C137.714 26.0792 137.19 24.6659 137.19 22.7225C137.19 20.7792 137.714 19.3659 138.938 18.1292C140.162 16.8925 141.56 16.3625 143.308 16.3625C145.057 16.3625 146.455 17.0692 147.679 18.1292C148.902 19.3659 149.427 20.7792 149.427 22.5459C149.427 24.4892 148.902 26.0792 147.679 27.3159Z" stroke="white" stroke-width="0.3556" stroke-miterlimit="13.3333"/>
<path d="M151.692 28.8667V16.6767H153.615L159.384 26.2167V23.92V16.8533H160.957V28.8667H159.384L153.265 18.7967V21.0933V28.8667H151.692Z" fill="white"/>
<path d="M151.692 28.8667V16.6767H153.615L159.384 26.2167V23.92V16.8533H160.957V28.8667H159.384L153.265 18.7967V21.0933V28.8667H151.692Z" stroke="white" stroke-width="0.3556" stroke-miterlimit="13.3333"/>
<path d="M214.667 63.3167H218.338V38.0533H214.667V63.3167ZM248.406 47.0633L244.036 58.0167H243.861L239.49 47.0633H235.47L242.113 62.4333L238.267 70.9133H242.113L252.426 47.0633H248.406ZM227.079 60.3133C225.855 60.3133 224.107 59.6067 224.107 58.1933C224.107 56.25 226.205 55.5433 228.128 55.5433C229.701 55.5433 230.575 55.8967 231.624 56.4267C231.274 58.7233 229.177 60.3133 227.079 60.3133ZM227.603 46.5333C224.806 46.5333 222.009 47.77 220.96 50.42L224.282 51.8333C224.981 50.42 226.38 49.89 227.778 49.89C229.701 49.89 231.624 51.1267 231.799 53.07V53.2467C231.1 52.8933 229.701 52.1867 227.953 52.1867C224.457 52.1867 220.786 54.13 220.786 57.84C220.786 61.1967 223.757 63.4933 227.079 63.4933C229.526 63.4933 230.925 62.4333 231.799 61.02H231.974V62.9633H235.645V53.6C235.12 49.0067 231.799 46.5333 227.603 46.5333ZM204.353 50.0667H199.109V41.41H204.353C207.15 41.41 208.724 43.7067 208.724 45.8267C208.724 47.77 207.15 50.0667 204.353 50.0667ZM204.353 37.8767H195.438V63.3167H199.109V53.6H204.353C208.549 53.6 212.57 50.5967 212.57 45.65C212.57 40.7033 208.549 37.8767 204.353 37.8767ZM155.407 60.49C152.784 60.49 150.687 58.37 150.687 55.3667C150.687 52.3633 152.784 50.0667 155.407 50.0667C158.029 50.0667 159.952 52.3633 159.952 55.3667C159.952 58.1933 158.029 60.49 155.407 60.49ZM159.777 48.4767C158.728 47.4167 157.155 46.5333 155.232 46.5333C151.036 46.5333 147.016 50.2433 147.016 55.19C147.016 59.96 150.861 63.8467 155.232 63.8467C157.329 63.8467 158.903 62.9633 159.777 61.9033H159.952V63.14C159.952 66.4967 158.204 68.2633 155.407 68.2633C153.134 68.2633 151.736 66.6733 151.036 65.26L147.715 66.6733C148.589 68.97 151.211 71.7967 155.232 71.7967C159.602 71.7967 163.273 69.1467 163.273 62.7867V47.24H159.777V48.4767ZM165.895 63.3167H169.566V38.0533H165.895V63.3167ZM175.16 54.8367C174.985 51.48 177.782 49.89 179.705 49.89C181.279 49.89 182.502 50.5967 182.852 51.6567L175.16 54.8367ZM186.698 52.01C185.998 50.0667 183.901 46.5333 179.356 46.5333C174.985 46.5333 171.314 50.0667 171.314 55.19C171.314 59.96 174.985 63.8467 179.705 63.8467C183.551 63.8467 185.824 61.3733 186.872 59.96L183.901 58.0167C182.852 59.43 181.628 60.3133 179.705 60.3133C177.782 60.3133 176.384 59.43 175.51 57.6633L186.872 52.8933L186.698 52.01ZM95.7962 49.1833V52.8933H104.537C104.362 55.0133 103.663 56.4267 102.614 57.4867C101.39 58.7233 99.2924 60.1367 95.971 60.1367C90.5519 60.1367 86.5312 55.72 86.5312 50.42C86.5312 44.9433 90.7267 40.7033 95.971 40.7033C98.768 40.7033 100.866 41.7633 102.439 43.3533L105.061 40.7033C102.963 38.5833 99.9916 36.9933 95.971 36.9933C88.6289 36.9933 82.5106 43 82.5106 50.42C82.5106 57.84 88.6289 63.8467 95.971 63.8467C99.9916 63.8467 102.963 62.61 105.236 60.1367C107.683 57.6633 108.383 54.3067 108.383 51.6567C108.383 50.7733 108.383 50.0667 108.208 49.36L95.7962 49.1833ZM117.997 60.49C115.375 60.49 113.102 58.37 113.102 55.19C113.102 52.01 115.375 49.89 117.997 49.89C120.619 49.89 122.892 52.01 122.892 55.19C122.892 58.1933 120.619 60.49 117.997 60.49ZM117.997 46.5333C113.277 46.5333 109.431 50.2433 109.431 55.19C109.431 60.1367 113.277 63.8467 117.997 63.8467C122.717 63.8467 126.563 60.1367 126.563 55.19C126.563 50.2433 122.717 46.5333 117.997 46.5333ZM136.702 60.49C134.08 60.49 131.807 58.37 131.807 55.19C131.807 52.01 134.08 49.89 136.702 49.89C139.324 49.89 141.597 52.01 141.597 55.19C141.597 58.1933 139.324 60.49 136.702 60.49ZM136.702 46.5333C131.982 46.5333 128.136 50.2433 128.136 55.19C128.136 60.1367 131.982 63.8467 136.702 63.8467C141.422 63.8467 145.268 60.1367 145.268 55.19C145.268 50.2433 141.422 46.5333 136.702 46.5333Z" fill="white"/>
<path d="M41.6352 41.8059L20.3083 64.7726C21.0075 67.2459 23.28 69.0126 25.9022 69.0126C26.9511 69.0126 27.9999 68.6592 28.874 68.1292L52.9978 54.1726L41.6352 41.8059Z" fill="#EA4335"/>
<path d="M63.2608 37.8765L52.7722 31.6932L41.0599 42.2932L52.7722 54.1298L63.086 48.1232C64.8341 47.0632 66.0578 45.1198 66.0578 42.9998C66.2326 40.8798 65.0089 38.9365 63.2608 37.8765Z" fill="#FBBC04"/>
<path d="M20.2258 21.2295C20.0509 21.7595 20.0509 22.2895 20.0509 22.8195V63.2762C20.0509 63.8062 20.0509 64.3362 20.2258 64.6895L42.4267 42.4295L20.2258 21.2295Z" fill="#4285F4"/>
<path d="M41.7725 43.0016L52.7856 31.8716L28.8366 17.7383C27.9625 17.2083 26.9137 16.8549 25.8648 16.8549C23.2426 16.8549 20.9701 18.6216 20.2709 21.0949L41.7725 43.0016Z" fill="#34A853"/>
</g>
</g>
</g>
<defs>
<clipPath id="clip0_1_59">
<rect width="271" height="87" fill="white"/>
</clipPath>
<clipPath id="clip1_1_59">
<rect width="271" height="106" fill="white" transform="translate(0 -10)"/>
</clipPath>
</defs>
</svg>
