<?xml version="1.0" encoding="utf-8"?>
<!-- Generator: Adobe Illustrator 25.2.0, SVG Export Plug-In . SVG Version: 6.00 Build 0)  -->
<svg version="1.1"
	 id="svg2" xmlns:inkscape="http://www.inkscape.org/namespaces/inkscape" xmlns:sodipodi="http://sodipodi.sourceforge.net/DTD/sodipodi-0.dtd" xmlns:svg="http://www.w3.org/2000/svg"
	 xmlns="http://www.w3.org/2000/svg" xmlns:xlink="http://www.w3.org/1999/xlink" x="0px" y="0px" viewBox="0 0 206.7 80"
	 style="enable-background:new 0 0 206.7 80;" xml:space="preserve">
<style type="text/css">
	.st0{clip-path:url(#SVGID_2_);}
	.st1{opacity:0;clip-path:url(#SVGID_4_);}
	.st2{fill:#FFFFFF;}
	.st3{fill:#A6A6A6;}
	.st4{fill:none;stroke:#FFFFFF;stroke-width:0.2667;stroke-miterlimit:13.3333;}
	.st5{fill:#FFFFFF;stroke:#FFFFFF;stroke-width:0.2667;stroke-miterlimit:13.3333;}
	.st6{fill:#EA4335;}
	.st7{fill:#FBBC04;}
	.st8{fill:#4285F4;}
	.st9{fill:#34A853;}
</style>
<sodipodi:namedview  bordercolor="#000000" borderopacity="0.25" id="namedview4" inkscape:deskcolor="#d1d1d1" inkscape:pagecheckerboard="0" inkscape:pageopacity="0.0" inkscape:showpageshadow="2" pagecolor="#ffffff">
	</sodipodi:namedview>
<g id="g8" transform="matrix(1.3333333,0,0,-1.3333333,0,80)" inkscape:groupmode="layer" inkscape:label="GetItOnGooglePlay_Badge_Web_color_English">
	<g id="g10">
		<g>
			<defs>
				<rect id="SVGID_1_" x="-41.1" y="-15.9" width="237.2" height="91.8"/>
			</defs>
			<clipPath id="SVGID_2_">
				<use xlink:href="#SVGID_1_"  style="overflow:visible;"/>
			</clipPath>
			<g id="g12" class="st0">
				<g id="g18">
					<g id="g20">
					</g>
					<g id="g30">
						<g>
							<defs>
								<rect id="SVGID_3_" x="-41.1" y="-15.9" width="237.2" height="91.8"/>
							</defs>
							<clipPath id="SVGID_4_">
								<use xlink:href="#SVGID_3_"  style="overflow:visible;"/>
							</clipPath>
							<g id="g28" class="st1">
								<path id="path26" class="st2" d="M166.5-4.4H-11.5v68.9h177.9V-4.4z"/>
							</g>
						</g>
					</g>
				</g>
				<g id="g32" transform="translate(140.0001,10.0001)">
					<path id="path34" d="M9.2-3h-143.5c-3.2,0-5.7,2.6-5.7,5.7v34.4c0,3.2,2.6,5.7,5.7,5.7H9.2c3.2,0,5.7-2.6,5.7-5.7V2.8
						C15-0.4,12.4-3,9.2-3"/>
				</g>
				<g id="g36" transform="translate(140.0001,49.9999)">
					<path id="path38" class="st3" d="M9.2,3h-143.5c-3.2,0-5.7-2.6-5.7-5.7v-34.4c0-3.2,2.6-5.7,5.7-5.7H9.2c3.2,0,5.7,2.6,5.7,5.7
						v34.4C15,0.4,12.4,3,9.2,3 M9.2,2c2.7,0,4.8-2.2,4.8-4.8v-34.4c0-2.7-2.2-4.8-4.8-4.8h-143.5c-2.7,0-4.8,2.2-4.8,4.8v34.4
						c0,2.7,2.2,4.8,4.8,4.8L9.2,2z"/>
				</g>
				<g id="g40" transform="translate(57.4185,39.7568)">
					<path id="path42" class="st2" d="M-3,1.4c0-1-0.3-1.7-0.9-2.3c-0.6-0.7-1.5-1-2.5-1c-1,0-1.8,0.3-2.5,1c-0.7,0.7-1,1.5-1,2.6
						c0,1,0.3,1.9,1,2.6c0.7,0.7,1.5,1,2.5,1c0.5,0,1-0.1,1.4-0.3c0.4-0.2,0.8-0.4,1.1-0.8l-0.6-0.6c-0.5,0.5-1.1,0.8-1.9,0.8
						c-0.7,0-1.4-0.3-1.9-0.8C-8.8,3.2-9,2.5-9,1.7c0-0.8,0.3-1.5,0.8-2C-7.7-0.8-7.1-1-6.4-1c0.8,0,1.4,0.3,1.9,0.8
						c0.3,0.3,0.5,0.8,0.6,1.4h-2.5V2H-3C-3,1.8-3,1.6-3,1.4"/>
				</g>
				<g id="g44" transform="translate(57.4185,39.7568)">
					<path id="path46" class="st4" d="M-3,1.4c0-1-0.3-1.7-0.9-2.3c-0.6-0.7-1.5-1-2.5-1c-1,0-1.8,0.3-2.5,1c-0.7,0.7-1,1.5-1,2.6
						c0,1,0.3,1.9,1,2.6c0.7,0.7,1.5,1,2.5,1c0.5,0,1-0.1,1.4-0.3c0.4-0.2,0.8-0.4,1.1-0.8l-0.6-0.6c-0.5,0.5-1.1,0.8-1.9,0.8
						c-0.7,0-1.4-0.3-1.9-0.8C-8.8,3.2-9,2.5-9,1.7c0-0.8,0.3-1.5,0.8-2C-7.7-0.8-7.1-1-6.4-1c0.8,0,1.4,0.3,1.9,0.8
						c0.3,0.3,0.5,0.8,0.6,1.4h-2.5V2H-3C-3,1.8-3,1.6-3,1.4z"/>
				</g>
				<g id="g48" transform="translate(62.0278,42.2627)">
					<path id="path50" class="st2" d="M-2.3,1.8h-3.1v-2.2h2.8v-0.8h-2.8v-2.2h3.1v-0.8h-4v6.9h4V1.8z"/>
				</g>
				<g id="g52" transform="translate(62.0278,42.2627)">
					<path id="path54" class="st4" d="M-2.3,1.8h-3.1v-2.2h2.8v-0.8h-2.8v-2.2h3.1v-0.8h-4v6.9h4V1.8z"/>
				</g>
				<g id="g56" transform="translate(65.2788,37)">
					<path id="path58" class="st2" d="M-1.8,1h-0.9v6h-1.9v0.8h4.7V7.1h-1.9V1z"/>
				</g>
				<g id="g60" transform="translate(65.2788,37)">
					<path id="path62" class="st4" d="M-1.8,1h-0.9v6h-1.9v0.8h4.7V7.1h-1.9V1z"/>
				</g>
				<path id="path64" class="st5" d="M68.8,44.9h0.9V38h-0.9V44.9z"/>
				<g id="g66" transform="translate(74.1284,37)">
					<path id="path68" class="st2" d="M-0.5,1h-0.9v6h-1.9v0.8h4.7V7.1h-1.9V1z"/>
				</g>
				<g id="g70" transform="translate(74.1284,37)">
					<path id="path72" class="st4" d="M-0.5,1h-0.9v6h-1.9v0.8h4.7V7.1h-1.9V1z"/>
				</g>
				<g id="g74" transform="translate(79.7793,38.2778)">
					<path id="path76" class="st2" d="M0.3,1.2c0.5-0.5,1.1-0.8,1.9-0.8s1.4,0.3,1.9,0.8s0.8,1.2,0.8,2s-0.3,1.5-0.8,2
						C3.6,5.7,2.9,6,2.2,6S0.8,5.7,0.3,5.2c-0.5-0.5-0.8-1.2-0.8-2S-0.2,1.7,0.3,1.2 M4.7,0.6c-0.7-0.7-1.5-1-2.5-1S0.4,0-0.3,0.6
						c-0.7,0.7-1,1.5-1,2.6s0.3,1.9,1,2.6c0.7,0.7,1.5,1,2.5,1c1,0,1.8-0.4,2.5-1c0.7-0.7,1-1.5,1-2.5C5.7,2.2,5.4,1.3,4.7,0.6"/>
				</g>
				<g id="g78" transform="translate(79.7793,38.2778)">
					<path id="path80" class="st4" d="M0.3,1.2c0.5-0.5,1.1-0.8,1.9-0.8s1.4,0.3,1.9,0.8s0.8,1.2,0.8,2s-0.3,1.5-0.8,2
						C3.6,5.7,2.9,6,2.2,6S0.8,5.7,0.3,5.2c-0.5-0.5-0.8-1.2-0.8-2S-0.2,1.7,0.3,1.2z M4.7,0.6c-0.7-0.7-1.5-1-2.5-1S0.4,0-0.3,0.6
						c-0.7,0.7-1,1.5-1,2.6s0.3,1.9,1,2.6c0.7,0.7,1.5,1,2.5,1c1,0,1.8-0.4,2.5-1c0.7-0.7,1-1.5,1-2.5C5.7,2.2,5.4,1.3,4.7,0.6z"/>
				</g>
				<g id="g82" transform="translate(85.5752,37)">
					<path id="path84" class="st2" d="M1.2,1v6.9h1.1l3.3-5.4h0l0,1.3v4h0.9V1H5.6L2.1,6.7h0l0-1.3V1H1.2z"/>
				</g>
				<g id="g86" transform="translate(85.5752,37)">
					<path id="path88" class="st4" d="M1.2,1v6.9h1.1l3.3-5.4h0l0,1.3v4h0.9V1H5.6L2.1,6.7h0l0-1.3V1H1.2z"/>
				</g>
				<path id="path90" class="st2" d="M122.8,18.5h2.1v14.3h-2.1V18.5z M142.1,27.7l-2.5-6.2h-0.1l-2.5,6.2h-2.3l3.8-8.7l-2.2-4.8
					h2.2l5.9,13.5L142.1,27.7z M129.9,20.2c-0.7,0-1.7,0.4-1.7,1.2c0,1.1,1.2,1.5,2.3,1.5c0.9,0,1.4-0.2,2-0.5
					C132.3,21.1,131.1,20.2,129.9,20.2 M130.2,28c-1.6,0-3.2-0.7-3.8-2.2l1.9-0.8c0.4,0.8,1.2,1.1,2,1.1c1.1,0,2.2-0.7,2.3-1.8v-0.1
					c-0.4,0.2-1.2,0.6-2.2,0.6c-2,0-4.1-1.1-4.1-3.2c0-1.9,1.7-3.2,3.6-3.2c1.4,0,2.2,0.6,2.7,1.4h0.1v-1.1h2.1V24
					C134.5,26.6,132.6,28,130.2,28 M116.9,26h-3v4.9h3c1.6,0,2.5-1.3,2.5-2.5C119.4,27.3,118.5,26,116.9,26 M116.9,32.9h-5.1V18.5
					h2.1V24h3c2.4,0,4.7,1.7,4.7,4.5S119.3,32.9,116.9,32.9 M88.9,20.1c-1.5,0-2.7,1.2-2.7,2.9c0,1.7,1.2,3,2.7,3
					c1.5,0,2.6-1.3,2.6-3C91.5,21.4,90.4,20.1,88.9,20.1 M91.4,26.9L91.4,26.9c-0.6,0.6-1.5,1.1-2.6,1.1c-2.4,0-4.7-2.1-4.7-4.9
					c0-2.7,2.2-4.9,4.7-4.9c1.2,0,2.1,0.5,2.6,1.1h0.1v-0.7c0-1.9-1-2.9-2.6-2.9c-1.3,0-2.1,0.9-2.5,1.7l-1.9-0.8
					c0.5-1.3,2-2.9,4.3-2.9c2.5,0,4.6,1.5,4.6,5.1v8.8h-2V26.9z M94.9,18.5H97v14.3h-2.1V18.5z M100.2,23.3
					c-0.1,1.9,1.5,2.8,2.6,2.8c0.9,0,1.6-0.4,1.8-1L100.2,23.3z M106.8,24.9c-0.4,1.1-1.6,3.1-4.2,3.1c-2.5,0-4.6-2-4.6-4.9
					c0-2.7,2.1-4.9,4.8-4.9c2.2,0,3.5,1.4,4.1,2.2l-1.7,1.1c-0.6-0.8-1.3-1.3-2.4-1.3c-1.1,0-1.9,0.5-2.4,1.5l6.5,2.7L106.8,24.9z
					 M54.8,26.5v-2.1h5c-0.1-1.2-0.5-2-1.1-2.6c-0.7-0.7-1.9-1.5-3.8-1.5c-3.1,0-5.4,2.5-5.4,5.5c0,3.1,2.4,5.5,5.4,5.5
					c1.6,0,2.8-0.6,3.7-1.5l1.5,1.5c-1.2,1.2-2.9,2.1-5.2,2.1c-4.2,0-7.7-3.4-7.7-7.6s3.5-7.6,7.7-7.6c2.3,0,4,0.7,5.3,2.1
					c1.4,1.4,1.8,3.3,1.8,4.8c0,0.5,0,0.9-0.1,1.3L54.8,26.5z M67.5,20.1c-1.5,0-2.8,1.2-2.8,3c0,1.8,1.3,3,2.8,3
					c1.5,0,2.8-1.2,2.8-3C70.3,21.4,69,20.1,67.5,20.1 M67.5,28c-2.7,0-4.9-2.1-4.9-4.9c0-2.8,2.2-4.9,4.9-4.9
					c2.7,0,4.9,2.1,4.9,4.9C72.4,25.9,70.2,28,67.5,28 M78.2,20.1c-1.5,0-2.8,1.2-2.8,3c0,1.8,1.3,3,2.8,3c1.5,0,2.8-1.2,2.8-3
					C81,21.4,79.7,20.1,78.2,20.1 M78.2,28c-2.7,0-4.9-2.1-4.9-4.9c0-2.8,2.2-4.9,4.9-4.9c2.7,0,4.9,2.1,4.9,4.9
					C83.1,25.9,80.9,28,78.2,28"/>
				<g id="g92" transform="translate(30.7173,30.5759)">
					<path id="path94" class="st6" d="M-6.9,0.1l-12.2-13c0,0,0,0,0,0c0.4-1.4,1.7-2.4,3.2-2.4c0.6,0,1.2,0.2,1.7,0.5l0,0l13.8,7.9
						L-6.9,0.1z"/>
				</g>
				<g id="g96" transform="translate(41.4882,32.5001)">
					<path id="path98" class="st7" d="M-5.3,0.4L-5.3,0.4l-6,3.5l-6.7-6l6.7-6.7l5.9,3.4c1,0.6,1.7,1.7,1.7,2.9
						C-3.6-1.3-4.3-0.2-5.3,0.4"/>
				</g>
				<g id="g100" transform="translate(20.0701,40.7229)">
					<path id="path102" class="st8" d="M-8.5,1.6C-8.6,1.3-8.6,1-8.6,0.7v-22.9c0-0.3,0-0.6,0.1-0.8L4.2-10.4L-8.5,1.6z"/>
				</g>
				<g id="g104" transform="translate(30.7959,29.9991)">
					<path id="path106" class="st9" d="M-6.9,0l6.3,6.3l-13.7,8c-0.5,0.3-1.1,0.5-1.7,0.5c-1.5,0-2.8-1-3.2-2.4c0,0,0,0,0,0L-6.9,0z
						"/>
				</g>
			</g>
		</g>
	</g>
</g>
</svg>
